<?xml version="1.0" standalone="no"?>
<!DOCTYPE svg PUBLIC "-//W3C//DTD SVG 1.1//EN" "http://www.w3.org/Graphics/SVG/1.1/DTD/svg11.dtd" >
<svg xmlns="http://www.w3.org/2000/svg">
<metadata></metadata>
<defs>
<font id="opificio_serifregular" horiz-adv-x="1699" >
<font-face units-per-em="2048" ascent="1536" descent="-512" />
<missing-glyph horiz-adv-x="698" />
<glyph horiz-adv-x="2048" />
<glyph horiz-adv-x="2048" />
<glyph unicode="&#xd;" horiz-adv-x="2048" />
<glyph unicode=" "  horiz-adv-x="698" />
<glyph unicode="&#x09;" horiz-adv-x="698" />
<glyph unicode="&#xa0;" horiz-adv-x="698" />
<glyph unicode="!" horiz-adv-x="337" d="M80 86q0 37 24.5 61.5t61.5 24.5t61.5 -24.5t24.5 -61.5t-24.5 -61.5t-61.5 -24.5t-61.5 24.5t-24.5 61.5zM96 268v1166h144v-1166h-144z" />
<glyph unicode="&#x22;" horiz-adv-x="575" d="M123 1100v334h127v-334h-127zM328 1100v334h127v-334h-127z" />
<glyph unicode="#" horiz-adv-x="1132" d="M49 561v144h264l52 176h-246v143h284l117 410h152l-117 -410h176l117 410h151l-116 -410h209v-143h-248l-51 -176h229v-144h-270l-158 -561h-152l158 561h-176l-158 -561h-151l157 561h-223zM465 705h176l51 176h-176z" />
<glyph unicode="$" horiz-adv-x="1110" d="M43 35v393h143q0 -70 30 -131t81 -106.5t119 -71.5q35 -14 69 -21v617q-78 27 -147 59q-92 41 -162 103.5t-90 164.5q-10 88 25.5 168t102.5 140.5t157 95.5q55 23 114 31v235h144v-233q70 -8 125 -35q74 -35 127 -84v74h139v-334h-139q0 16 -3.5 39.5t-19.5 52.5 q-39 63 -121 104q-51 25 -108 35v-520q20 -6 43 -12q102 -33 188 -85t142.5 -134t56.5 -213q0 -98 -41 -176t-109.5 -131.5t-158.5 -79.5q-59 -18 -121 -25v-221h-144v223q-59 8 -116 29q-94 35 -183 110v-61h-143zM236 1053q16 -72 82.5 -114t166.5 -79v473q-26 -6 -51 -14 q-63 -23 -111.5 -61.5t-74 -92t-12.5 -112.5zM629 98q33 6 65 15q63 16 112.5 50t79 84t29.5 120q0 100 -55 161.5t-141 100.5q-43 20 -90 39v-570z" />
<glyph unicode="%" horiz-adv-x="782" d="M82 0l461 1434h157l-467 -1434h-151zM82 1350q0 37 24.5 61.5t61.5 24.5t61.5 -25t24.5 -61q0 -37 -24.5 -61.5t-61.5 -24.5t-61.5 24.5t-24.5 61.5zM530 86q0 37 25 61.5t61 24.5q37 0 61.5 -24.5t24.5 -61.5t-24.5 -61.5t-61.5 -24.5t-61.5 24.5t-24.5 61.5z" />
<glyph unicode="&#x26;" horiz-adv-x="1337" d="M87 419q7 93 55 182t139 159l127 104l-35 37q-59 66 -92 122t-33 122q0 59 22.5 112.5t61.5 92.5t91 61.5t112 22.5q59 0 112 -22.5t92 -61.5t61.5 -92.5t22.5 -112.5q0 -84 -42 -144.5t-107 -107.5l-64 -45l383 -424l201 205l102 -103l-206 -209l202 -223l-106 -94 l-197 217l-133 -131q-68 -68 -151.5 -101.5t-173 -33.5t-173.5 32.5t-151 100.5q-68 68 -97.5 155t-22.5 180zM222 401.5q-5 -59.5 18.5 -114t70.5 -99.5q45 -47 103.5 -69.5t119 -23.5t118 21.5t104.5 69.5l137 138l-383 440l-131 -111q-78 -66 -115 -129t-42 -122.5z M391 1145q2 -51 35 -92t61 -70l29 -31l44 27.5t53.5 42.5t45 55.5t19.5 67.5q0 59 -42 101t-101 42t-102.5 -42t-41.5 -101z" />
<glyph unicode="'" horiz-adv-x="366" d="M123 1100v334h127v-334h-127z" />
<glyph unicode="(" horiz-adv-x="458" d="M111 -143v1529q0 63 24.5 119t65.5 95.5t97 63.5t118 24v-146q-33 0 -61.5 -12t-51 -32.5t-36 -49.5t-13.5 -62v-1529q0 -33 13.5 -61.5t36 -49t51 -33t61.5 -12.5v-145q-61 0 -117.5 23.5t-97.5 63.5t-65.5 95t-24.5 119z" />
<glyph unicode=")" horiz-adv-x="456" d="M47 -299q33 0 61.5 12.5t51 33t36 49t13.5 61.5v1529q0 33 -13.5 62t-36 49.5t-51 32.5t-61.5 12v146q61 0 117.5 -24t97.5 -63.5t65.5 -95t24.5 -119.5v-1529q0 -63 -24.5 -118.5t-65.5 -95.5t-97 -63.5t-118 -23.5v145z" />
<glyph unicode="*" horiz-adv-x="464" d="M55 1190l101 57l-101 58l37 67l103 -59v121h75v-121l105 59l37 -67l-103 -58l103 -57l-37 -64l-105 58v-119h-75v119l-103 -58z" />
<glyph unicode="+" horiz-adv-x="745" d="M25 557v143h274v275h143v-275h281v-143h-281v-281h-143v281h-274z" />
<glyph unicode="," horiz-adv-x="305" d="M53 86q0 37 24.5 61.5t61.5 24.5t61.5 -24.5t24.5 -61.5v-80q0 -41 -12 -72.5t-49 -52.5q-51 -27 -65.5 -10.5t1.5 41.5q16 20 27.5 39.5t11.5 48.5q-37 0 -61.5 24.5t-24.5 61.5z" />
<glyph unicode="-" horiz-adv-x="942" d="M123 557v143h698v-143h-698z" />
<glyph unicode="." horiz-adv-x="346" d="M88 86q0 37 24.5 61.5t61.5 24.5t61.5 -24.5t24.5 -61.5t-24.5 -61.5t-61.5 -24.5t-61.5 24.5t-24.5 61.5z" />
<glyph unicode="/" horiz-adv-x="647" d="M14 0l467 1434h152l-467 -1434h-152z" />
<glyph unicode="0" d="M84 717q0 158 60.5 297t165 243.5t243.5 165t297 60.5t297 -60.5t243.5 -165t165 -244t60.5 -296.5q0 -158 -60.5 -297t-165 -243.5t-243.5 -165t-297 -60.5t-297 60.5t-243.5 165t-165 243.5t-60.5 297zM227 717q0 -127 49.5 -241t134.5 -198.5t198.5 -134t240.5 -49.5 t239.5 49.5t197.5 134t134 198.5t49 241t-49 239.5t-134 197.5t-197.5 134t-239.5 49t-240.5 -49t-198.5 -134t-134.5 -197.5t-49.5 -239.5z" />
<glyph unicode="1" horiz-adv-x="483" d="M12 1292v142h350v-1434h-143v1292h-207z" />
<glyph unicode="2" horiz-adv-x="1036" d="M37 0v143l702 662q45 45 68.5 103.5t23.5 117.5t-23.5 116.5t-68.5 102.5q-47 45 -103 68.5t-116.5 23.5t-118 -23.5t-102.5 -68.5q-43 -43 -65.5 -97t-26.5 -112h-144q2 86 35 166t99 146q68 68 150.5 100.5t170.5 32.5t171 -33t150.5 -100.5t100.5 -150.5t33 -170 t-33 -171t-100 -149l-594 -564h600v133h143l2 -276h-954z" />
<glyph unicode="3" horiz-adv-x="1292" d="M82 510h143q0 -86 33 -162t90.5 -133t134 -90t162.5 -33t163 33t134 90t90 134t33 163t-33 163t-104.5 142.5t-171.5 87.5q-109 18 -205 4v154l309 227h-553v-133h-143v277h907v-2l2 2v-144l-285 -233q39 -10 76 -27q102 -43 179 -119.5t121 -179t44 -219.5t-44 -219.5 t-120.5 -179t-179 -120.5t-219.5 -44t-219 44t-179 120.5t-122 179.5q-43 100 -43 217z" />
<glyph unicode="4" horiz-adv-x="1015" d="M39 258l285 1176h147l-250 -1033h461v252h143v-252h168v-143h-168v-258h-143v258h-643z" />
<glyph unicode="5" horiz-adv-x="1277" d="M72 510h143q0 -86 33 -162t90 -133t134 -90t163 -33t162.5 33t134 90t90.5 134t33 163t-33 163t-90.5 134t-134 90t-172.5 33q-98 0 -184.5 -34t-137.5 -103h-143l127 639h712v-277h-143v133h-455l-57 -297q135 84 291 82q117 0 219 -44t179 -120.5t121 -179t44 -219.5 t-44 -219.5t-121 -179t-179 -120.5t-219 -44t-219.5 44t-179 120.5t-121.5 179.5q-43 100 -43 217z" />
<glyph unicode="6" horiz-adv-x="1296" d="M96 514v406q0 117 44 219t121 179t179.5 121t218.5 44q117 0 220 -45q96 -41 170 -115l-99 -100q-55 53 -129 82q-76 33 -162 32q-86 0 -162.5 -31.5t-134 -89t-90 -134t-32.5 -162.5v-31q10 12 20 22q78 78 180.5 122t218.5 44q117 0 219.5 -44t179.5 -120.5t121 -179 t44 -219.5t-44 -219t-121 -179t-179.5 -121t-219.5 -44t-219 44t-179 121t-121 179t-44 219zM240 514q0 -86 32.5 -163t90 -134t134 -90t162.5 -33t163 33t134.5 90t90 134t32.5 163t-32.5 163t-90 134t-134.5 90t-163 33t-162.5 -33t-134 -90t-90 -134t-32.5 -163z" />
<glyph unicode="7" horiz-adv-x="1081" d="M111 0l706 1290h-563v-133h-143v277h960l-786 -1434h-174z" />
<glyph unicode="8" horiz-adv-x="1261" d="M68 514q0 117 44 219.5t120.5 179t179.5 119.5l6 2q-62 74 -62 174q0 57 21.5 107.5t58.5 87.5t87 58.5t108 21.5q57 0 107 -21.5t87 -58.5t58.5 -87t21.5 -108q0 -100 -61 -174l6 -2q102 -43 179 -119.5t121 -179t44 -219.5t-44 -219t-121 -179t-179 -121t-219 -44 t-219.5 44t-179 121t-120.5 179t-44 219zM211 514q0 -86 32.5 -163t90 -134t134.5 -90t163 -33t162.5 33t134 90t90.5 134t33 163t-33 163t-90.5 134t-134.5 90q-72 31 -158 33q-90 0 -167 -33t-134.5 -90t-90 -134t-32.5 -163zM500 1208q0 -53 39 -92t96 -39q55 4 91 41 t36 90t-39 92t-92 39t-92 -39t-39 -92z" />
<glyph unicode="9" horiz-adv-x="1294" d="M74 920q0 117 44 219t120.5 179t179 121t219.5 44t219 -44t179 -121t121 -179.5t44 -243.5q-2 -500 -45 -600q-43 -102 -120 -179t-179 -121t-219 -44t-219 45q-96 41 -170 115l98 100q55 -53 129 -82q76 -33 162 -33t163 32t134 89t90 134t33 163v29l-23 -23 q-76 -76 -178 -120t-219 -44t-219.5 44t-179 121t-120.5 179.5t-44 219.5zM217 920q0 -86 33 -163t90 -134.5t134 -90t163 -32.5t163 32.5t134 90t90 134.5t33 163t-33 162.5t-90 134t-134 90t-163 32.5t-163 -32.5t-134 -90t-90 -134t-33 -162.5z" />
<glyph unicode=":" horiz-adv-x="360" d="M96 86q0 37 24.5 61.5t61.5 24.5t61.5 -24.5t24.5 -61.5t-24.5 -61.5t-61.5 -24.5t-61.5 24.5t-24.5 61.5zM96 938q0 37 24.5 61.5t61.5 24.5t61.5 -24.5t24.5 -61.5t-24.5 -61.5t-61.5 -24.5t-61.5 24.5t-24.5 61.5z" />
<glyph unicode=";" horiz-adv-x="299" d="M49 86q0 37 24.5 61.5t61.5 24.5t61.5 -24.5t24.5 -61.5v-80q0 -27 -11 -53.5t-40 -44.5q-51 -27 -65.5 -10.5t8.5 36.5q49 27 34 66q-57 0 -77.5 24.5t-20.5 61.5zM49 938q0 37 24.5 61.5t61.5 24.5t61.5 -24.5t24.5 -61.5t-24.5 -61.5t-61.5 -24.5t-61.5 24.5 t-24.5 61.5z" />
<glyph unicode="&#x3c;" horiz-adv-x="1024" d="M92 436v158l813 352v-158l-631 -274l631 -272v-158z" />
<glyph unicode="=" horiz-adv-x="1220" d="M123 299v143h975v-143h-975zM123 586v143h975v-143h-975z" />
<glyph unicode="&#x3e;" horiz-adv-x="1040" d="M123 84v158l631 272l-631 274v158l813 -352v-158z" />
<glyph unicode="?" horiz-adv-x="1038" d="M23 1245q57 139 180 217t282 78q104 0 196.5 -40t161 -108.5t108.5 -160.5t40 -197q0 -96 -33.5 -182t-93 -152.5t-140.5 -109.5t-173 -55v-160h-143v291h77q76 0 143.5 28.5t118 78.5t79 116.5t28.5 144.5q0 76 -28.5 143.5t-79 118t-118 79t-143.5 28.5 q-102 0 -182 -39t-129 -119h-151zM395 86q0 37 24.5 61.5t61.5 24.5t61.5 -24.5t24.5 -61.5t-24.5 -61.5t-61.5 -24.5t-61.5 24.5t-24.5 61.5z" />
<glyph unicode="@" horiz-adv-x="1716" d="M84 716.5q0 157.5 60.5 297t165 244t243.5 165t297 60.5t297 -60.5t243.5 -165t165 -244t60.5 -296.5v-551q0 -43 -17.5 -83t-46 -68.5t-67.5 -46t-84 -17.5t-84 17.5t-67.5 46t-45 68.5t-16.5 83v209q-66 -63 -152 -101q-86 -37 -186 -36q-100 0 -187.5 37.5t-152 102 t-102 151.5t-37.5 187.5t37.5 187.5t102 152.5t152 103.5t187.5 38t187 -38t152.5 -103.5t103.5 -152.5t38 -187v-551q0 -29 20.5 -49.5t49.5 -20.5t50.5 20.5t21.5 49.5v551q0 129 -49.5 241.5t-134.5 197.5t-197.5 134t-241.5 49t-241.5 -49t-197.5 -134t-134.5 -197.5 t-49.5 -241.5t49.5 -242t134.5 -197.5t197.5 -134t241.5 -49.5v-143q-158 0 -297 60.5t-243.5 165t-165 243.5t-60.5 296.5zM512 717q0 -70 26.5 -131.5t72.5 -107.5t107.5 -72.5t131.5 -26.5t131 26.5t107.5 72.5t73 107.5t26.5 131.5t-26.5 131t-73 107t-107.5 73t-131 27 t-131.5 -27t-107.5 -73t-72.5 -107t-26.5 -131z" />
<glyph unicode="A" horiz-adv-x="1226" d="M47 0v145h78l414 1289h151l412 -1289h78v-145h-181l-180 557h-411l-179 -557h-182zM455 700h319l-160 539z" />
<glyph unicode="B" horiz-adv-x="1247" d="M74 1294v140h518q221 0 348 -103q123 -104 123 -284q0 -92 -32 -162t-91 -123q-4 -4 -8 -6q57 -23 102 -58q63 -59 96 -129.5t33 -169.5q0 -182 -129 -295q-133 -104 -358 -104h-469v1294h-133zM350 145h328q160 0 240 68q88 74 88 188q0 123 -88 193q-80 68 -240 68 h-328v-517zM350 801h307h3q92 0 167 65q82 66 82 181q0 113 -82 182q-87 65 -227 65h-4h-246v-493z" />
<glyph unicode="C" horiz-adv-x="1587" d="M82 716.5q0 157.5 60.5 297t165 244t243.5 165t297 60.5t297 -62q131 -57 233 -174v86h144v-256h-172q-29 41 -66 76q-84 86 -196.5 135t-239.5 49t-240.5 -49t-198.5 -134t-134.5 -197.5t-49.5 -239.5t49.5 -241t134.5 -198.5t198.5 -134t240.5 -49.5t239.5 49.5 t196.5 132.5q37 37 68 80h170q-53 -100 -133 -180q-104 -104 -243.5 -164.5t-297.5 -60.5t-297 60.5t-243.5 165t-165 243.5t-60.5 296.5z" />
<glyph unicode="D" horiz-adv-x="1470" d="M57 1294v140h615q147 0 278 -56.5t227.5 -153t152.5 -227.5t56 -278t-56 -278.5t-152.5 -229.5t-227.5 -154.5t-278 -56.5h-482v1294h-133zM334 143h338q119 0 222 45t181 124t123 183.5t45 223.5t-45 222t-123 181t-181 123t-222 45h-338v-1147z" />
<glyph unicode="E" horiz-adv-x="1271" d="M61 1290v144h1088v-277h-143v133h-668v-590h668v-143h-668v-414h668v133h143v-276h-954v1290h-134z" />
<glyph unicode="F" horiz-adv-x="1294" d="M90 1290v144h1088v-277h-144v133h-667v-590h667v-143h-667v-557h-144v1290h-133z" />
<glyph unicode="G" horiz-adv-x="1626" d="M84 716.5q0 157.5 60.5 297t165 244t243.5 165t297 60.5t297 -62q131 -57 233 -174v86h144v-256h-172q-29 41 -66 76q-84 86 -196.5 135t-239.5 49t-240.5 -49t-198.5 -134t-134.5 -197.5t-49.5 -239.5t49.5 -241t134.5 -198.5t198.5 -134t240.5 -49.5t245.5 40 t204.5 154q82 110 82 255v14h-479v143h645v-11q0 -329 -120 -479q-121 -151 -270.5 -205t-307.5 -54t-297 60.5t-243.5 165t-165 243.5t-60.5 296.5z" />
<glyph unicode="H" horiz-adv-x="1437" d="M109 0v143h133v1147h-133v144h276v-734h668v734h276v-144h-133v-1147h133v-143h-276v557h-668v-557h-276z" />
<glyph unicode="I" horiz-adv-x="614" d="M102 0v143h134v1147h-134v144h410v-144h-133v-1147h133v-143h-410z" />
<glyph unicode="J" horiz-adv-x="1134" d="M70 428h143q0 -70 25.5 -130t70.5 -105.5t106.5 -72t131.5 -26.5t130 26.5t105 72t72 105.5t27 130v862h-525v-133h-143v277h811v-1006q0 -98 -38 -185t-102.5 -151.5t-151.5 -102.5t-185 -38t-185.5 38t-152 102.5t-102 151.5t-37.5 185z" />
<glyph unicode="K" horiz-adv-x="1253" d="M90 1290v144h277v-650l534 650h197l-551 -662l629 -772h-181l-542 659l-86 -102v-557h-144v1290h-133z" />
<glyph unicode="L" horiz-adv-x="1294" d="M90 1290v144h277v-1291h667v133h144v-276h-955v1290h-133z" />
<glyph unicode="M" horiz-adv-x="1691" d="M111 0v143h133v1147h-133v144h276l457 -646l461 646h276v-144h-133v-1147h133v-143h-276v1204l-461 -637l-457 635v-1202h-276z" />
<glyph unicode="N" horiz-adv-x="1409" d="M94 0v143h133v1147h-133v144h277l667 -1168v1168h277v-144h-133v-1290h-144l-667 1167v-1167h-277z" />
<glyph unicode="O" d="M84 717q0 158 60.5 297t165 243.5t243.5 165t297 60.5t297 -60.5t243.5 -165t165 -244t60.5 -296.5q0 -158 -60.5 -297t-165 -243.5t-243.5 -165t-297 -60.5t-297 60.5t-243.5 165t-165 243.5t-60.5 297zM227 717q0 -127 49.5 -241t134.5 -198.5t198.5 -134t240.5 -49.5 t239.5 49.5t197.5 134t134 198.5t49 241t-49 239.5t-134 197.5t-197.5 134t-239.5 49t-240.5 -49t-198.5 -134t-134.5 -197.5t-49.5 -239.5z" />
<glyph unicode="P" horiz-adv-x="1196" d="M88 1290v144h559q221 0 348 -103q123 -104 123 -334q0 -147 -31.5 -216.5t-91.5 -123.5q-127 -100 -348 -100h-282v-557h-144v1290h-133zM365 696h286q144 0 232 66q82 66 82 235q0 162 -82 232q-87 65 -228 65h-4h-286v-598z" />
<glyph unicode="Q" horiz-adv-x="1679" d="M68 717q0 158 60 297t164.5 243.5t244 165t297.5 60.5t297 -60.5t243.5 -165t164.5 -244t60 -296.5q0 -158 -60 -297t-165 -244q-98 -98 -229 -158q8 -31 35 -55q37 -35 88 -35v-143q-55 0 -103.5 20.5t-84.5 56.5t-56 85q-6 12 -10 26q-84 -22 -172 -22h-8 q-158 0 -297.5 60.5t-244 165t-164.5 243.5t-60 297zM211 717q0 -127 49 -241t134 -198.5t199 -134t241 -49.5q78 0 151 19q-8 12 -18 22q-37 35 -88 35v143q55 0 103 -20.5t83 -56.5q33 -31 51 -72q86 45 154 112q86 86 135 200t49 241t-49 239.5t-134 197.5t-197.5 134 t-239.5 49t-241 -49t-199 -134t-134 -197.5t-49 -239.5z" />
<glyph unicode="R" horiz-adv-x="1357" d="M92 1290v144h559q209 0 342 -103q63 -59 96 -146t33 -186q0 -225 -129 -337q-27 -20 -57 -39q29 -16 55 -35q129 -113 129 -295v-150h133v-143h-276v293q0 61 -22.5 108.5t-67.5 85.5q-76 70 -213 70h-305v-557h-144v1290h-133zM369 692h284q152 0 234 70q90 76 90 239 q0 162 -90 234q-82 70 -234 70h-284v-613z" />
<glyph unicode="S" horiz-adv-x="1206" d="M104 25v403h146q0 -70 29.5 -131t80.5 -107q52 -46 120 -72q64 -25 134 -24h11q70 2 133 18.5t112.5 50.5t79 84t29.5 120q0 100 -55.5 161.5t-140.5 101.5t-187 71.5t-194.5 72.5t-162 103.5t-89.5 164.5q-2 19 -2 38q0 67 28 130q36 80 102 140.5t157 96.5t190 36 q111 0 192 -39q74 -35 127 -105v95h139v-334h-139l-4 39q-2 25 -18 53q-39 63 -121 104t-176 43h-10q-58 -1 -117 -21q-64 -22 -112 -60t-74 -92q-17 -36 -17 -76q0 -18 4 -37q16 -72 83 -114t159 -75t194.5 -65.5t188.5 -84.5t142 -134t56 -213q0 -98 -41 -176 t-109.5 -131.5t-158.5 -81t-188 -27.5t-192.5 34.5t-184.5 133.5v-94h-144z" />
<glyph unicode="T" horiz-adv-x="1163" d="M102 1157v277h955v-277h-144v133h-262v-1290h-143v1290h-262v-133h-144z" />
<glyph unicode="U" horiz-adv-x="1247" d="M20 1290v144h277v-1006q0 -70 25.5 -131t70.5 -106.5t106.5 -71t131.5 -25.5t131 25.5t106 71t71 106.5t26 131v1006h274v-144h-131v-862q0 -100 -37 -187t-101.5 -151.5t-151.5 -101.5t-187 -37t-187.5 37t-152 101.5t-101 151.5t-36.5 187v862h-134z" />
<glyph unicode="V" horiz-adv-x="1443" d="M98 1290v144h238l385 -1219l385 1219h237v-144h-133v2l-413 -1292h-152l-414 1292v-2h-133z" />
<glyph unicode="W" horiz-adv-x="1667" d="M111 1290v144h276v-1203l457 635l461 -637v1205h276v-144h-133v-1290h-143l-461 645l-457 -645h-143v1290h-133z" />
<glyph unicode="X" horiz-adv-x="1263" d="M100 0v143h133v-2l316 576l-295 573h-133v144h225l287 -562l285 562h225v-144h-133l-295 -573l315 -574h133v-143h-217l-313 561l-314 -561h-219z" />
<glyph unicode="Y" horiz-adv-x="1382" d="M98 1290v144h217l377 -732l377 732h215v-144h-133l-381 -727v-563h-154v559l-385 733v-2h-133z" />
<glyph unicode="Z" horiz-adv-x="1173" d="M111 0l710 1290h-567v-133h-143v277h954l-711 -1291h568v133h143v-276h-954z" />
<glyph unicode="[" horiz-adv-x="585" d="M123 -446v2134h358v-144h-215v-1847h215v-143h-358z" />
<glyph unicode="\" horiz-adv-x="647" d="M14 1434h152l467 -1434h-152z" />
<glyph unicode="]" horiz-adv-x="559" d="M80 -303h215v1847h-215v144h358v-2134h-358v143z" />
<glyph unicode="^" horiz-adv-x="968" d="M53 621l353 813h157l352 -813h-157l-275 630l-272 -630h-158z" />
<glyph unicode="_" horiz-adv-x="1277" d="M123 0v143h1032v-143h-1032z" />
<glyph unicode="`" horiz-adv-x="360" d="M49 1434h152l104 -260h-151z" />
<glyph unicode="a" horiz-adv-x="1357" d="M88 514q0 117 44 219.5t121 179t179.5 120.5t218.5 44q117 0 219.5 -44t179 -120.5t120.5 -179t44 -219.5v-381h144v-133h-287v137q-98 -98 -200.5 -142t-219.5 -44t-219 44t-179 121t-121 179t-44 219zM231 514q0 -86 33 -163t90.5 -134t134 -90t162.5 -33t163 33 t134.5 90t89.5 133q29 70 33 146v18q0 86 -32.5 163t-90 134t-134.5 90t-163 33t-162.5 -33t-134 -90t-90.5 -134t-33 -163z" />
<glyph unicode="b" horiz-adv-x="1349" d="M0 1300v134h287v-574q57 92 180 154.5t240 62.5t219 -44t179 -120.5t121 -179t44 -219.5t-44 -219t-121 -179t-179.5 -121t-218.5 -44q-117 0 -219.5 44t-179.5 121t-121 179t-44 219v786h-143zM287 514q0 -86 32.5 -163t90 -134t134.5 -90t163 -33t162.5 33t134 90 t90 134t32.5 163t-32.5 163t-90 134t-134 90t-162.5 33t-163 -33t-134.5 -90t-90 -134t-32.5 -163z" />
<glyph unicode="c" horiz-adv-x="1277" d="M84 514q0 117 44 219.5t121 179t179 120.5t219 44t219 -45q90 -39 162 -102v78h143v-289h-159q-27 51 -68 92q-57 57 -134 90t-163 33t-162.5 -33t-134 -90t-90.5 -134t-33 -163t33 -163t90.5 -134t134 -90t162.5 -33t163 33t134 90q41 41 70 94h157l-6 -16 q-43 -102 -119.5 -179t-179 -121t-219.5 -44t-219 44t-179 121t-121 179t-44 219z" />
<glyph unicode="d" horiz-adv-x="1363" d="M92 514q0 117 44 219.5t121 179t179.5 120.5t218.5 44q117 0 240 -62.5t180 -154.5v574h287v-134h-143v-786q0 -117 -44.5 -219t-121 -179t-179 -121t-219.5 -44t-219 44t-179 121t-121 179t-44 219zM236 514q0 -86 32.5 -163t90 -134t134 -90t162.5 -33t163 33t134.5 90 t90 134t32.5 163t-32.5 163t-90 134t-134.5 90t-163 33t-162.5 -33t-134 -90t-90 -134t-32.5 -163z" />
<glyph unicode="e" horiz-adv-x="1275" d="M84 514q0 117 44 219.5t121 179t179 120.5t219 44t219.5 -44t179 -120.5t119.5 -179.5q37 -84 43 -176h-979q-2 -23 -2 -43q0 -86 33 -163t90.5 -134t134 -90t162.5 -33t163 33t134 90q41 41 70 94h157l-6 -16q-43 -102 -119.5 -179t-179 -121t-219.5 -44t-219 44 t-179 121t-121 179t-44 219zM270 680h752q-31 82 -78 131q-57 57 -134 90t-163 33t-162.5 -33t-134.5 -90q-49 -49 -80 -131z" />
<glyph unicode="f" horiz-adv-x="741" d="M66 557v143h104v459q0 57 21.5 107.5t58.5 87.5t87 58.5t107 21.5t107.5 -21.5t88.5 -58.5t59.5 -87t21.5 -108h-143q0 53 -39 91t-93 38q-53 0 -91 -38t-38 -91v-459h265v-143h-265v-557h-147v557h-104z" />
<glyph unicode="g" horiz-adv-x="1353" d="M84 514q0 117 44 219.5t121 179t179 120.5t219 44t219.5 -44t200.5 -144v135h287v-133h-144v-785q0 -117 -44 -219t-120.5 -179t-179 -121t-219.5 -44t-219 44t-180 122q-41 41 -74 92l105 105q29 -53 71 -96q57 -57 134 -90t163 -33t163 32.5t134 90t90 134t33 162.5v31 q-98 -98 -200.5 -142t-219.5 -44t-219 44t-179 121t-121 179t-44 219zM227 514q0 -86 33 -163t90.5 -134t134 -90t162.5 -33t163 33t134 90t90 134t33 179q0 80 -29 148q-37 76 -94 133t-134 90t-163 33t-162.5 -33t-134 -90t-90.5 -134t-33 -163z" />
<glyph unicode="h" horiz-adv-x="1163" d="M2 1300v134h291v-500q25 33 58.5 59.5t75.5 45t87 28.5t90 10q94 0 178 -36.5t146.5 -99t99.5 -146.5t37 -179v-2l2 -614h-147l-2 614v2q0 66 -25 123.5t-68 99.5t-100 66.5t-121 24.5q-61 0 -117.5 -26.5t-98.5 -71t-67.5 -100.5t-25.5 -118v-614h-150v1300h-143z" />
<glyph unicode="i" horiz-adv-x="489" d="M98 891v133h287v-1024h-143v891h-144zM229 1348q0 37 25 61.5t61 24.5q37 0 61.5 -25t24.5 -61q0 -37 -24.5 -61.5t-61.5 -24.5t-61.5 24.5t-24.5 61.5z" />
<glyph unicode="j" horiz-adv-x="389" d="M-264 -129h147q0 -53 38 -91t91 -38t92 38t39 91v1020h-143v133h287v-1153q0 -57 -21.5 -107.5t-59.5 -87t-88 -58t-108 -21.5q-57 0 -107 21.5t-87 58t-58.5 87t-21.5 107.5zM129 1348q0 37 24.5 61.5t61.5 24.5t61.5 -25t24.5 -61q0 -37 -24.5 -61.5t-61.5 -24.5 t-61.5 24.5t-24.5 61.5z" />
<glyph unicode="k" horiz-adv-x="942" d="M-2 1300v134h285v-748l381 338h170l-441 -416l463 -608h-184l-389 516l2 -516h-144v1300h-143z" />
<glyph unicode="l" horiz-adv-x="423" d="M18 1300v134h287v-1434h-143v1300h-144z" />
<glyph unicode="m" horiz-adv-x="1994" d="M45 891v133h289v-92q49 66 134 105.5t177 39.5q121 0 218.5 -58t160.5 -155q61 96 166.5 154.5t228.5 58.5q94 0 178 -36.5t146.5 -99t98.5 -147.5t36 -180l2 -614h-147l-2 614q0 66 -25 123.5t-67 100.5t-98 67.5t-122 24.5t-122 -24.5t-99 -67.5t-67.5 -100.5 t-24.5 -123.5l2 -614h-147l-3 614q-4 68 -29.5 126.5t-67.5 100.5t-97 65.5t-119 23.5q-63 0 -119.5 -26.5t-99.5 -71t-67.5 -100.5t-24.5 -118l2 -614h-148v891h-143z" />
<glyph unicode="n" horiz-adv-x="1249" d="M78 891v133h287v-94q20 33 55 60.5t77 47t89 29.5t94 10q94 0 178 -36.5t146.5 -99t99.5 -147.5t37 -180l2 -614h-148l-2 614q0 66 -24.5 123.5t-67.5 100.5t-100.5 67.5t-120.5 24.5t-120.5 -26.5t-100.5 -71t-68.5 -101.5t-25.5 -117l2 -614h-146v891h-143z" />
<glyph unicode="o" horiz-adv-x="1294" d="M84 514q0 117 44 219.5t121 179t179 120.5t219 44t219.5 -44t179 -120.5t120.5 -179t44 -219.5t-44 -219t-120.5 -179t-179 -121t-219.5 -44t-219 44t-179 121t-121 179t-44 219zM227 514q0 -86 33 -163t90.5 -134t134 -90t162.5 -33t163 33t134 90t90 134t33 163 t-33 163t-90 134t-134 90t-163 33t-162.5 -33t-134 -90t-90.5 -134t-33 -163z" />
<glyph unicode="p" horiz-adv-x="1267" d="M109 -408v920q0 117 44 219.5t120.5 179t179 120.5t219.5 44t219 -44t179 -120.5t121 -179t44 -219.5t-44 -219.5t-121 -179t-179.5 -120.5t-218.5 -44q-117 0 -240 62.5t-180 154.5v-574h-143zM252 512q0 -86 32.5 -163t90 -134t134.5 -90t163 -33t162.5 33t134 90 t90.5 134t33 163t-33 163t-90.5 134t-134 90t-162.5 33t-163 -33t-134.5 -90t-90 -134t-32.5 -163z" />
<glyph unicode="q" horiz-adv-x="1267" d="M33 512q0 117 44 219.5t120.5 179t179 120.5t219.5 44t219.5 -44t179 -120.5t120.5 -179t44 -219.5v-920h-143v574q-57 -92 -180 -154.5t-240 -62.5t-219.5 44t-179 120.5t-120.5 179t-44 219.5zM176 512q0 -86 33 -163t90 -134t134 -90t163 -33t163 33t134 90t90 134 t33 163t-33 163t-90 134t-134 90t-163 33t-163 -33t-134 -90t-90 -134t-33 -163z" />
<glyph unicode="r" horiz-adv-x="888" d="M82 891v133h283v-195q10 20 22 33q78 78 180.5 122t218.5 44v-143q-86 0 -162.5 -33t-134 -90t-90 -134t-32.5 -163v-465h-144l-2 891h-139z" />
<glyph unicode="s" horiz-adv-x="931" d="M109 -20v331h145q0 -53 22 -99t80 -95q54 -45 129 -45h13q102 6 151 61t53 123v9q0 63 -26 99q-28 38 -80.5 63.5t-132.5 46t-147.5 49t-116.5 86t-60 143.5q-2 16 -2 31q1 50 21 94q26 57 74.5 101t111 71.5t133.5 27.5q86 -2 129 -27.5t74 -66.5v80h143v-240h-153 q-18 59 -68.5 100.5t-114.5 43.5q-57 0 -107 -23.5t-79 -75.5q-21 -38 -21 -78q0 -15 3 -30q10 -49 48 -76t100.5 -49.5t138 -47t142 -66.5t103.5 -105.5t37 -159.5q0 -72 -29.5 -129t-80 -96t-117 -59.5t-138.5 -20.5q-78 0 -135 27.5t-100 87.5v-86h-143z" />
<glyph unicode="t" horiz-adv-x="589" d="M41 891v133h104v410h144v-410h268v-133h-268v-891h-144v891h-104z" />
<glyph unicode="u" horiz-adv-x="1404" d="M98 891v133h289l2 -612v-2q0 -66 24.5 -123.5t67.5 -99.5t99.5 -66.5t121.5 -24.5q66 0 123.5 24.5t100.5 66.5t67.5 99.5t24.5 123.5v614h287v-133h-144v-481q0 -94 -35.5 -178.5t-98 -146.5t-146.5 -99t-179 -37q-94 0 -178 37t-146.5 99t-99 146t-36.5 179v2l-2 479 h-142z" />
<glyph unicode="v" horiz-adv-x="1421" d="M102 891v133h242l367 -844l368 844h244v-133h-143v2l-389 -893h-158l-389 891h-142z" />
<glyph unicode="w" horiz-adv-x="2193" d="M106 891v133h287v-610q0 -66 24.5 -123.5t66.5 -100.5t99.5 -67.5t123.5 -24.5q63 0 120.5 24.5t100.5 67.5t68.5 100.5t25.5 123.5v610h147v-610q2 -70 28 -127.5t68 -99.5t97 -65.5t119 -23.5q66 0 123 24.5t99 67.5t66.5 100.5t24.5 123.5v610h291v-133h-143v-477 q0 -96 -36 -180t-99.5 -146.5t-147.5 -99.5t-178 -37q-123 0 -224.5 57.5t-162.5 155.5q-63 -98 -165 -155.5t-222 -57.5q-96 0 -179.5 37t-144.5 99.5t-97 146t-36 180.5v477h-144z" />
<glyph unicode="x" horiz-adv-x="1075" d="M113 0v133h141l201 379l-201 379h-141v133h237l189 -354l188 354h238v-133h-144l-200 -379l200 -379h144v-133h-236l-190 356l-191 -356h-235z" />
<glyph unicode="y" horiz-adv-x="1421" d="M113 891v133h288l2 -614v-2q0 -66 25 -123.5t68 -99.5t99 -66.5t122 -24.5t123 24.5t100 66.5t67.5 99.5t24.5 123.5v616h287v-133h-143v-483q0 -94 -36 -178.5t-98.5 -147t-146.5 -98.5q-51 -23 -107 -33l3 -463h-146l-2 463q-55 10 -104 33q-84 37 -146.5 99t-99.5 146 t-37 179v2l-2 481h-141z" />
<glyph unicode="z" horiz-adv-x="931" d="M113 0l487 881h-354v-144h-133v287h708l-469 -881h336v144h133v-287h-708z" />
<glyph unicode="{" horiz-adv-x="555" d="M20 551v145q33 0 62 12.5t51.5 33t35.5 49t13 61.5v534q0 63 24.5 119t65.5 95.5t97.5 63.5t117.5 24v-146q-33 0 -61.5 -12t-51 -32.5t-35.5 -49.5t-13 -62v-534q0 -72 -30 -130t-77 -99q47 -41 77 -99.5t30 -128.5v-538q0 -33 13 -61.5t35.5 -49t51.5 -33t61 -12.5 v-145q-61 0 -117.5 23.5t-97.5 63.5t-65.5 95t-24.5 119v538q0 63 -44 107.5t-105 48.5h-13z" />
<glyph unicode="|" horiz-adv-x="382" d="M123 -440v2128h143v-2128h-143z" />
<glyph unicode="}" horiz-adv-x="557" d="M70 -299q33 0 61.5 12.5t51 33t35.5 49t13 61.5v538q0 70 30 128.5t77 99.5q-47 41 -77 99t-30 130v534q0 33 -13 62t-35.5 49.5t-51.5 32.5t-61 12v146q61 0 117.5 -24t97.5 -63.5t65.5 -95t24.5 -119.5v-534q0 -33 13 -61.5t35.5 -49t51.5 -33t62 -12.5v-145h-13 q-61 -4 -105 -48t-44 -108v-538q0 -63 -24.5 -118.5t-65.5 -95.5t-97.5 -63.5t-117.5 -23.5v145z" />
<glyph unicode="~" horiz-adv-x="1075" d="M82 791v100h147v-100q0 -53 38 -91t91 -38q45 0 80 29.5t72 64.5t85 64.5t120 29.5q57 0 107 -21.5t87 -58.5t58.5 -87t21.5 -108v-100h-147v100q0 53 -38 91.5t-91 38.5q-45 0 -79 -30t-71 -65t-85 -64.5t-122 -29.5q-57 0 -107 21.5t-87 58.5t-58.5 87t-21.5 108z" />
<glyph unicode="&#xa1;" horiz-adv-x="337" d="M78 1348q0 37 24.5 61.5t61.5 24.5t61.5 -25t24.5 -61q0 -37 -24.5 -61.5t-61.5 -24.5t-61.5 24.5t-24.5 61.5zM90 0v1165h143v-1165h-143z" />
<glyph unicode="&#xa2;" horiz-adv-x="1298" d="M84 514q0 117 44 219.5t121 179t179 119.5q68 29 141 39v524h144v-522q80 -8 153 -41q90 -39 162 -102v78h143v-289h-159q-27 51 -68 92q-57 57 -135 90q-47 20 -96 27v-830q49 8 96 29q78 33 135 90q41 41 70 94h157l-6 -16q-43 -102 -119.5 -179t-179.5 -120 q-74 -33 -153 -41v-487h-144v489q-74 10 -141 39q-102 43 -179 120t-121 179t-44 219zM227 514q0 -86 33 -163t90.5 -134t132.5 -90q41 -18 86 -27v826q-45 -8 -86 -25q-76 -33 -133 -90t-90 -134t-33 -163z" />
<glyph unicode="&#xa3;" horiz-adv-x="788" d="M63 606v144h105v458q0 57 21.5 107.5t58.5 87.5t87 58.5t107 21.5t107.5 -21.5t88.5 -58.5t59.5 -87t21.5 -108h-144q0 53 -38.5 91t-92.5 38q-53 0 -91 -37.5t-38 -91.5v-458h265v-144h-265v-463h402v-143h-549v606h-105z" />
<glyph unicode="&#xa4;" horiz-adv-x="1056" d="M45 238l125 124q-23 35 -39 74q-33 76 -33 160t33 158q18 41 43 77l-129 130l102 100l127 -129q37 25 76 43q76 33 160 33q86 0 160 -33q39 -16 71 -41l127 127l103 -100l-127 -127q27 -37 45 -80q33 -74 33 -158t-33 -160q-18 -41 -41 -76l123 -122l-101 -103l-125 123 q-35 -25 -75 -41q-74 -33 -160 -33q-84 0 -160 33q-41 18 -80 43l-125 -125zM240 596q0 -55 21.5 -105.5t58 -86t86 -57t104.5 -21.5t104.5 21.5t86 57t58 86t21.5 105.5t-21.5 104.5t-58 86t-86 57t-104.5 20.5t-104.5 -20.5t-86 -57t-58 -86t-21.5 -104.5z" />
<glyph unicode="&#xa5;" horiz-adv-x="1382" d="M92 1290v144h209l385 -729l385 729h207v-144h-133l-307 -585h340v-144h-414v-147h414v-144h-414v-270h-154v270h-407v144h407v145l-2 2h-405v144h329l-307 587v-2h-133z" />
<glyph unicode="&#xa6;" horiz-adv-x="376" d="M123 -389v1024h143v-1024h-143zM123 758v1024h143v-1024h-143z" />
<glyph unicode="&#xa7;" horiz-adv-x="903" d="M78 311h145q0 -53 21.5 -99t78 -84t144.5 -36q100 0 150.5 48t54.5 116q2 70 -26 108.5t-81 63.5t-133 45.5t-147.5 49t-116.5 86t-59 143.5q-8 68 18.5 125t73.5 100q41 37 94 61q-18 8 -37 17q-68 29 -117 86t-59 143q-8 68 18.5 125t74.5 101t115.5 72t139.5 28 q82 0 142.5 -27t101.5 -68.5t64.5 -85t27.5 -73.5h-154q-18 59 -69 91t-113 32q-41 0 -88 -16.5t-87 -65.5t-30 -105q10 -49 48 -75.5t100.5 -49t138.5 -47t142.5 -66.5t103.5 -105.5t37 -160.5q0 -72 -30 -129t-81 -96q-16 -14 -35 -24q16 -8 31 -19q68 -41 104.5 -104.5 t36.5 -159.5q0 -72 -29.5 -129t-79.5 -96t-117 -59.5t-138 -20.5q-72 0 -141.5 25.5t-123 71.5t-85 110.5t-29.5 152.5zM252 760q10 -49 46 -78t99 -51q14 -4 43 -6q100 0 150.5 47.5t54.5 115.5q0 27 -4 48q-12 49 -63 77q-59 33 -121 33q-41 0 -88 -16.5t-87 -65.5 t-30 -104z" />
<glyph unicode="&#xa8;" horiz-adv-x="718" d="M111 1608q0 37 24.5 61.5t61.5 24.5t61.5 -24.5t24.5 -61.5t-25 -61.5t-61 -24.5q-37 0 -61.5 24.5t-24.5 61.5zM438 1608q0 37 24.5 61.5t61.5 24.5t61.5 -24.5t24.5 -61.5t-24.5 -61.5t-61.5 -24.5t-61.5 24.5t-24.5 61.5z" />
<glyph unicode="&#xa9;" d="M84 717q0 158 60.5 297t165 243.5t243.5 165t297 60.5t297 -60.5t243.5 -165t165 -244t60.5 -296.5q0 -158 -60.5 -297t-165 -243.5t-243.5 -165t-297 -60.5t-297 60.5t-243.5 165t-165 243.5t-60.5 297zM227 717q0 -127 49.5 -241t134.5 -198.5t198.5 -134t240.5 -49.5 t239.5 49.5t197.5 134t134 198.5t49 241t-49 239.5t-134 197.5t-197.5 134t-239.5 49t-240.5 -49t-198.5 -134t-134.5 -197.5t-49.5 -239.5zM362 716.5q0 102.5 39 191.5t108 159t157 106.5t190 36.5q104 0 192.5 -36.5t158 -106.5t106.5 -160l2 -12h-137q-27 47 -60 80 q-49 53 -116.5 82.5t-145.5 29.5q-74 0 -140.5 -29.5t-117.5 -81.5t-80 -118.5t-29 -140.5t29 -140.5t80 -118.5t117.5 -82t140.5 -30q78 0 145.5 30t116.5 83q33 33 60 80h137l-2 -13q-37 -90 -106.5 -159.5t-157.5 -106.5t-193 -37q-102 0 -190 37t-157 106.5t-108 158.5 t-39 191.5z" />
<glyph unicode="&#xaa;" horiz-adv-x="688" d="M55 1159q0 55 20.5 102.5t55.5 83t83 56t103 20.5t102.5 -20.5t83.5 -56t56.5 -83t20.5 -102.5v-145h61v-94h-164v53q-29 -33 -73 -54.5t-87 -21.5q-55 0 -103 20.5t-83 56.5t-55.5 83t-20.5 102zM156 1159q0 -68 46 -114t113 -46q68 0 115 46.5t47 113.5q0 68 -47 115 t-115 47t-113.5 -47t-45.5 -115z" />
<glyph unicode="&#xab;" horiz-adv-x="1142" d="M37 510l510 510l100 -102l-407 -408l407 -408l-100 -102zM426 510l510 510l100 -102l-407 -408l407 -408l-100 -102z" />
<glyph unicode="&#xac;" horiz-adv-x="886" d="M68 496v143h698v-350h-143v207h-555z" />
<glyph unicode="&#xad;" horiz-adv-x="858" d="M68 496v143h698v-143h-698z" />
<glyph unicode="&#xae;" d="M84 717q0 158 60.5 297t165 243.5t243.5 165t297 60.5t297 -60.5t243.5 -165t165 -244t60.5 -296.5q0 -158 -60.5 -297t-165 -243.5t-243.5 -165t-297 -60.5t-297 60.5t-243.5 165t-165 243.5t-60.5 297zM227 717q0 -127 49.5 -241t134.5 -198.5t198.5 -134t240.5 -49.5 t239.5 49.5t197.5 134t134 198.5t49 241t-49 239.5t-134 197.5t-197.5 134t-239.5 49t-240.5 -49t-198.5 -134t-134.5 -197.5t-49.5 -239.5zM578 250v983h264q195 0 279.5 -87t84.5 -202t-63.5 -166t-108.5 -55q39 0 104.5 -53.5t65.5 -173.5v-246h-143v231q0 104 -65.5 140 t-131.5 36h-143v-407h-143zM721 793h123q111 0 163 30.5t54 116.5v12q0 59 -46 105.5t-171 46.5h-123v-311z" />
<glyph unicode="&#xb0;" horiz-adv-x="458" d="M63 1253q0 31 12.5 60.5t34 51t50 34t61.5 12.5t61.5 -12.5t50 -34t34 -51t12.5 -60.5q0 -33 -12.5 -61.5t-34 -50t-50 -34.5t-61.5 -13t-61.5 13t-50 34.5t-34 50t-12.5 61.5zM127 1253q0 -20 8 -37.5t21.5 -28.5t29 -19.5t35.5 -8.5t37.5 8.5t29 19.5t19.5 28.5t8 37.5 t-8 38t-19.5 29t-28.5 19.5t-38 8.5q-20 0 -35.5 -8.5t-29 -19.5t-21.5 -29t-8 -38z" />
<glyph unicode="&#xb1;" horiz-adv-x="849" d="M61 0v143h699v-143h-699zM61 606v144h275v274h143v-274h281v-144h-281v-280h-143v280h-275z" />
<glyph unicode="&#xb2;" horiz-adv-x="575" d="M84 844v80l266 254q10 8 18.5 25.5t8.5 35.5q0 41 -27 68q-35 31 -69 30q-33 0 -66 -26q-10 -16 -19.5 -36t-11.5 -48h-92q0 94 58 147q55 55 131 56q35 0 69.5 -13.5t63.5 -42.5q55 -53 55 -131q0 -35 -15.5 -71.5t-43.5 -63.5l-181 -172h154v49h92v-141h-391z" />
<glyph unicode="&#xb3;" horiz-adv-x="645" d="M80 1057h94q0 -47 10 -74q18 -39 52 -63.5t79 -24.5q59 0 101.5 42t42.5 101q0 41 -25.5 79t-77.5 52h2q-43 6 -96 0v91l76 57h-131v-51h-96v145h391v-84l-90 -74q63 -27 102 -85t39 -130q0 -49 -18.5 -93t-50 -75.5t-75.5 -50t-94 -18.5q-74 0 -131 40t-86 105 q-18 39 -18 111z" />
<glyph unicode="&#xb4;" horiz-adv-x="362" d="M57 1174l105 260h151l-104 -260h-152z" />
<glyph unicode="&#xb5;" horiz-adv-x="1392" d="M100 881v143h281v-610q0 -66 24.5 -123.5t67.5 -99t100.5 -66.5t122.5 -25q66 0 123.5 25t100.5 66.5t67.5 99t24.5 123.5v610h276v-143h-133v-467q0 -94 -36 -178t-98.5 -146.5t-146 -99.5t-178.5 -37q-92 0 -172 32.5t-141 92.5v-484h-150v1287h-133z" />
<glyph unicode="&#xb6;" horiz-adv-x="1093" d="M63 641v27q4 61 29 120q45 106 141.5 171t215.5 65h145v-1430h-145v662q-80 0 -150 30.5t-122 82t-83 122t-31 150.5zM725 -406v1430h276v-143h-131v-1287h-145z" />
<glyph unicode="&#xb7;" horiz-adv-x="350" d="M96 696q0 37 24.5 61.5t61.5 24.5t61.5 -24.5t24.5 -61.5t-24.5 -61.5t-61.5 -24.5t-61.5 24.5t-24.5 61.5z" />
<glyph unicode="&#xb8;" horiz-adv-x="530" d="M123 0h143v-113q43 0 83 -17t68.5 -46t46 -68t17.5 -84t-17.5 -84t-46 -67.5t-68.5 -45t-83 -16.5h-143v144h143q29 0 49.5 20.5t20.5 48.5q0 29 -20.5 50.5t-49.5 21.5h-143v256z" />
<glyph unicode="&#xb9;" horiz-adv-x="317" d="M53 1323v111h189v-572h-113v461h-76z" />
<glyph unicode="&#xba;" horiz-adv-x="727" d="M86 1155q0 59 20.5 109.5t59.5 89.5t89 59.5t110 20.5q59 0 109 -20.5t88 -59.5t58.5 -89.5t20.5 -109.5t-20.5 -109.5t-58.5 -88t-88 -58t-109 -20.5t-109.5 20.5t-89.5 58t-59.5 88t-20.5 109.5zM199 1155q0 -35 11 -65.5t35.5 -54t56.5 -37t65 -13.5q35 0 66.5 13.5 t55 37t37 54t13.5 65.5q0 33 -13.5 65.5t-37 56t-55.5 36t-66 12.5q-33 0 -65 -12.5t-56.5 -36t-35.5 -56t-11 -65.5z" />
<glyph unicode="&#xbb;" horiz-adv-x="1142" d="M106 102l408 408l-408 408l101 102l510 -510l-510 -510zM496 102l407 408l-407 408l100 102l510 -510l-510 -510z" />
<glyph unicode="&#xbf;" horiz-adv-x="1038" d="M47 506q0 96 34 182t93 152.5t140 109.5t173 56v159h144v-291h-78q-76 0 -143.5 -28.5t-117.5 -78.5t-79 -117.5t-29 -143.5t29 -143.5t79 -117.5t117.5 -79t143.5 -29q102 0 182 39t129 119h152q-57 -139 -180 -217t-283 -78q-104 0 -196.5 40t-161 108.5t-108.5 160.5 t-40 197zM471 1348q0 37 24.5 61.5t61.5 24.5t61.5 -25t24.5 -61q0 -37 -24.5 -61.5t-61.5 -24.5t-61.5 24.5t-24.5 61.5z" />
<glyph unicode="&#xc0;" horiz-adv-x="1333" d="M98 0v145h78l414 1289h151l412 -1289h78v-145h-181l-180 557h-411l-179 -557h-182zM483 1801h152l104 -260h-151zM506 700h319l-160 539z" />
<glyph unicode="&#xc1;" horiz-adv-x="1329" d="M98 0v145h78l414 1289h151l412 -1289h78v-145h-181l-180 557h-411l-179 -557h-182zM506 700h319l-160 539zM592 1541l105 260h151l-104 -260h-152z" />
<glyph unicode="&#xc2;" horiz-adv-x="1329" d="M98 0v145h78l414 1289h151l412 -1289h78v-145h-181l-180 557h-411l-179 -557h-182zM387 1540l186 267h182l189 -267h-156l-123 172l-125 -172h-153zM506 700h319l-160 539z" />
<glyph unicode="&#xc3;" horiz-adv-x="1329" d="M102 0v145h78l414 1289h151l412 -1289h78v-145h-181l-180 557h-411l-179 -557h-182zM405 1618q49 84 135.5 107.5t170.5 -23.5q31 -18 57.5 -9t44.5 40l127 -76q-49 -84 -135 -107.5t-170 25.5q-31 20 -57.5 10t-45.5 -43zM510 700h319l-160 539z" />
<glyph unicode="&#xc4;" horiz-adv-x="1341" d="M102 0v145h78l414 1289h151l412 -1289h78v-145h-181l-180 557h-411l-179 -557h-182zM420 1626q0 37 24.5 61.5t61.5 24.5t61.5 -24.5t24.5 -61.5t-25 -61.5t-61 -24.5q-37 0 -61.5 24.5t-24.5 61.5zM510 700h319l-160 539zM747 1626q0 37 24.5 61.5t61.5 24.5t61.5 -24.5 t24.5 -61.5t-24.5 -61.5t-61.5 -24.5t-61.5 24.5t-24.5 61.5z" />
<glyph unicode="&#xc5;" horiz-adv-x="1337" d="M102 0v145h78l414 1289h151l412 -1289h78v-145h-181l-180 557h-411l-179 -557h-182zM475 1735q0 41 14.5 76t41 61.5t61.5 41t76 14.5t75.5 -14.5t61 -41t41 -61.5t14.5 -76t-14.5 -76t-41 -61.5t-61 -41t-75.5 -14.5t-76 14.5t-61.5 41t-41 61.5t-14.5 76zM510 700h319 l-160 539zM553 1735q0 -25 8 -46.5t24.5 -37.5t39 -25.5t45.5 -9.5q25 0 46 9.5t37.5 25.5t25.5 37.5t9 46.5q0 23 -9 45.5t-25.5 38.5t-38 24.5t-45.5 8.5q-23 0 -45.5 -8.5t-39 -24.5t-24.5 -38.5t-8 -45.5z" />
<glyph unicode="&#xc6;" horiz-adv-x="1724" d="M96 0v145h78l414 1289h1030v-277h-143v133h-668v-590h668v-143h-668v-414h668v133h143v-276h-954v557h-207l-178 -557h-183zM504 700h160v498z" />
<glyph unicode="&#xc7;" horiz-adv-x="1634" d="M82 716.5q0 157.5 60.5 297t165 244t243.5 165t297 60.5t297 -62q131 -57 233 -174v86h144v-256h-172q-29 41 -66 76q-84 86 -196.5 135t-239.5 49t-240.5 -49t-198.5 -134t-134.5 -197.5t-49.5 -239.5t49.5 -241t134.5 -198.5t198.5 -134t240.5 -49.5t239.5 49.5 t196.5 132.5q37 37 68 80h170q-53 -100 -133 -180q-104 -104 -243.5 -164.5t-297.5 -60.5t-297 60.5t-243.5 165t-165 243.5t-60.5 296.5zM735 0h143v-113q43 0 83 -17t68.5 -46t46 -68t17.5 -84t-17.5 -84t-46 -67.5t-68.5 -45t-83 -16.5h-143v144h143q29 0 49.5 20.5 t20.5 48.5q0 29 -20.5 50.5t-49.5 21.5h-143v256z" />
<glyph unicode="&#xc8;" horiz-adv-x="1267" d="M75 1290v144h1088v-277h-143v133h-668v-590h668v-143h-668v-414h668v133h143v-276h-954v1290h-134zM459 1801h152l104 -260h-151z" />
<glyph unicode="&#xc9;" horiz-adv-x="1292" d="M81 1290v144h1088v-277h-143v133h-668v-590h668v-143h-668v-414h668v133h143v-276h-954v1290h-134zM528 1541l105 260h151l-104 -260h-152z" />
<glyph unicode="&#xca;" horiz-adv-x="1292" d="M81 1290v144h1088v-277h-143v133h-668v-590h668v-143h-668v-414h668v133h143v-276h-954v1290h-134zM377 1540l186 267h182l189 -267h-156l-123 172l-125 -172h-153z" />
<glyph unicode="&#xcb;" horiz-adv-x="1306" d="M96 1290v144h1088v-277h-143v133h-668v-590h668v-143h-668v-414h668v133h143v-276h-954v1290h-134zM420 1626q0 37 24.5 61.5t61.5 24.5t61.5 -24.5t24.5 -61.5t-25 -61.5t-61 -24.5q-37 0 -61.5 24.5t-24.5 61.5zM747 1626q0 37 24.5 61.5t61.5 24.5t61.5 -24.5 t24.5 -61.5t-24.5 -61.5t-61.5 -24.5t-61.5 24.5t-24.5 61.5z" />
<glyph unicode="&#xcc;" horiz-adv-x="610" d="M100 0v143h134v1147h-134v144h410v-144h-133v-1147h133v-143h-410zM133 1801h152l104 -260h-151z" />
<glyph unicode="&#xcd;" horiz-adv-x="602" d="M96 0v143h134v1147h-134v144h410v-144h-133v-1147h133v-143h-410zM219 1541l105 260h151l-104 -260h-152z" />
<glyph unicode="&#xce;" horiz-adv-x="610" d="M33 1540l186 267h182l189 -267h-156l-123 172l-125 -172h-153zM102 0v143h134v1147h-134v144h410v-144h-133v-1147h133v-143h-410z" />
<glyph unicode="&#xcf;" horiz-adv-x="618" d="M66 1626q0 37 24.5 61.5t61.5 24.5t61.5 -24.5t24.5 -61.5t-25 -61.5t-61 -24.5q-37 0 -61.5 24.5t-24.5 61.5zM106 0v143h134v1147h-134v144h410v-144h-133v-1147h133v-143h-410zM393 1626q0 37 24.5 61.5t61.5 24.5t61.5 -24.5t24.5 -61.5t-24.5 -61.5t-61.5 -24.5 t-61.5 24.5t-24.5 61.5z" />
<glyph unicode="&#xd0;" horiz-adv-x="1568" d="M80 600v143h215v547h-133v144h614q147 0 278.5 -56.5t227.5 -153t152.5 -227.5t56.5 -278t-56.5 -278.5t-152.5 -229.5t-227 -154.5t-279 -56.5h-481v600h-215zM438 143h338q119 0 222.5 45t181 124t123 183.5t45.5 223.5t-45.5 222t-123 181t-181 123t-222.5 45h-338 v-547h340v-143h-340v-457z" />
<glyph unicode="&#xd1;" horiz-adv-x="1378" d="M65 0v143h133v1147h-133v144h277l667 -1168v1168h277v-144h-133v-1290h-144l-667 1167v-1167h-277zM405 1618q49 84 135.5 107.5t170.5 -23.5q31 -18 57.5 -9t44.5 40l127 -76q-49 -84 -135 -107.5t-170 25.5q-31 20 -57.5 10t-45.5 -43z" />
<glyph unicode="&#xd2;" d="M166 717q0 158 60.5 297t165 243.5t243.5 165t297 60.5t297 -60.5t243.5 -165t165 -244t60.5 -296.5q0 -158 -60.5 -297t-165 -243.5t-243.5 -165t-297 -60.5t-297 60.5t-243.5 165t-165 243.5t-60.5 297zM309 717q0 -127 49.5 -241t134.5 -198.5t198.5 -134t240.5 -49.5 t239.5 49.5t197.5 134t134 198.5t49 241t-49 239.5t-134 197.5t-197.5 134t-239.5 49t-240.5 -49t-198.5 -134t-134.5 -197.5t-49.5 -239.5zM743 1860h152l104 -260h-151z" />
<glyph unicode="&#xd3;" d="M166 717q0 158 60.5 297t165 243.5t243.5 165t297 60.5t297 -60.5t243.5 -165t165 -244t60.5 -296.5q0 -158 -60.5 -297t-165 -243.5t-243.5 -165t-297 -60.5t-297 60.5t-243.5 165t-165 243.5t-60.5 297zM309 717q0 -127 49.5 -241t134.5 -198.5t198.5 -134t240.5 -49.5 t239.5 49.5t197.5 134t134 198.5t49 241t-49 239.5t-134 197.5t-197.5 134t-239.5 49t-240.5 -49t-198.5 -134t-134.5 -197.5t-49.5 -239.5zM850 1600l105 260h151l-104 -260h-152z" />
<glyph unicode="&#xd4;" d="M166 717q0 158 60.5 297t165 243.5t243.5 165t297 60.5t297 -60.5t243.5 -165t165 -244t60.5 -296.5q0 -158 -60.5 -297t-165 -243.5t-243.5 -165t-297 -60.5t-297 60.5t-243.5 165t-165 243.5t-60.5 297zM309 717q0 -127 49.5 -241t134.5 -198.5t198.5 -134t240.5 -49.5 t239.5 49.5t197.5 134t134 198.5t49 241t-49 239.5t-134 197.5t-197.5 134t-239.5 49t-240.5 -49t-198.5 -134t-134.5 -197.5t-49.5 -239.5zM654 1599l186 267h182l189 -267h-156l-123 172l-125 -172h-153z" />
<glyph unicode="&#xd5;" d="M166 717q0 158 60.5 297t165 243.5t243.5 165t297 60.5t297 -60.5t243.5 -165t165 -244t60.5 -296.5q0 -158 -60.5 -297t-165 -243.5t-243.5 -165t-297 -60.5t-297 60.5t-243.5 165t-165 243.5t-60.5 297zM309 717q0 -127 49.5 -241t134.5 -198.5t198.5 -134t240.5 -49.5 t239.5 49.5t197.5 134t134 198.5t49 241t-49 239.5t-134 197.5t-197.5 134t-239.5 49t-240.5 -49t-198.5 -134t-134.5 -197.5t-49.5 -239.5zM663 1677q49 84 135.5 107.5t170.5 -23.5q31 -18 57.5 -9t44.5 40l127 -76q-49 -84 -135 -107.5t-170 25.5q-31 20 -57.5 10 t-45.5 -43z" />
<glyph unicode="&#xd6;" d="M166 717q0 158 60.5 297t165 243.5t243.5 165t297 60.5t297 -60.5t243.5 -165t165 -244t60.5 -296.5q0 -158 -60.5 -297t-165 -243.5t-243.5 -165t-297 -60.5t-297 60.5t-243.5 165t-165 243.5t-60.5 297zM309 717q0 -127 49.5 -241t134.5 -198.5t198.5 -134t240.5 -49.5 t239.5 49.5t197.5 134t134 198.5t49 241t-49 239.5t-134 197.5t-197.5 134t-239.5 49t-240.5 -49t-198.5 -134t-134.5 -197.5t-49.5 -239.5zM682 1686q0 37 24.5 61.5t61.5 24.5t61.5 -24.5t24.5 -61.5t-25 -61.5t-61 -24.5q-37 0 -61.5 24.5t-24.5 61.5zM1009 1686 q0 37 24.5 61.5t61.5 24.5t61.5 -24.5t24.5 -61.5t-24.5 -61.5t-61.5 -24.5t-61.5 24.5t-24.5 61.5z" />
<glyph unicode="&#xd7;" horiz-adv-x="784" d="M92 373l199 198l-195 193l103 102l194 -194l193 194l102 -102l-194 -193l198 -198l-100 -103l-199 199l-198 -199z" />
<glyph unicode="&#xd8;" horiz-adv-x="1617" d="M152 717q0 158 60.5 297t165 243.5t243.5 165t297 60.5t297 -60.5t243.5 -165t165 -244t60.5 -296.5q0 -158 -60.5 -297t-165 -243.5t-243.5 -165t-297 -60.5t-297 60.5t-243.5 165t-165 243.5t-60.5 297zM295 717q0 -127 49.5 -241t134.5 -198.5t198.5 -134t240.5 -49.5 t239.5 49.5t197.5 134t134 198.5t49 241t-49 239.5t-134 197.5t-197.5 134t-239.5 49t-240.5 -49t-198.5 -134t-134.5 -197.5t-49.5 -239.5zM532 0l467 1434h152l-467 -1434h-152z" />
<glyph unicode="&#xd9;" horiz-adv-x="1431" d="M106 1290v144h277v-1006q0 -70 25.5 -131t70.5 -106.5t106.5 -71t131.5 -25.5t131 25.5t106 71t71 106.5t26 131v1006h274v-144h-131v-862q0 -100 -37 -187t-101.5 -151.5t-151.5 -101.5t-187 -37t-187.5 37t-152 101.5t-101 151.5t-36.5 187v862h-134zM547 1801h152 l104 -260h-151z" />
<glyph unicode="&#xda;" horiz-adv-x="1427" d="M106 1290v144h277v-1006q0 -70 25.5 -131t70.5 -106.5t106.5 -71t131.5 -25.5t131 25.5t106 71t71 106.5t26 131v1006h274v-144h-131v-862q0 -100 -37 -187t-101.5 -151.5t-151.5 -101.5t-187 -37t-187.5 37t-152 101.5t-101 151.5t-36.5 187v862h-134zM639 1541l105 260 h151l-104 -260h-152z" />
<glyph unicode="&#xdb;" horiz-adv-x="1427" d="M106 1290v144h277v-1006q0 -70 25.5 -131t70.5 -106.5t106.5 -71t131.5 -25.5t131 25.5t106 71t71 106.5t26 131v1006h274v-144h-131v-862q0 -100 -37 -187t-101.5 -151.5t-151.5 -101.5t-187 -37t-187.5 37t-152 101.5t-101 151.5t-36.5 187v862h-134zM439 1540l186 267 h182l189 -267h-156l-123 172l-125 -172h-153z" />
<glyph unicode="&#xdc;" horiz-adv-x="1417" d="M100 1290v144h277v-1006q0 -70 25.5 -131t70.5 -106.5t106.5 -71t131.5 -25.5t131 25.5t106 71t71 106.5t26 131v1006h274v-144h-131v-862q0 -100 -37 -187t-101.5 -151.5t-151.5 -101.5t-187 -37t-187.5 37t-152 101.5t-101 151.5t-36.5 187v862h-134zM461 1626 q0 37 24.5 61.5t61.5 24.5t61.5 -24.5t24.5 -61.5t-25 -61.5t-61 -24.5q-37 0 -61.5 24.5t-24.5 61.5zM788 1626q0 37 24.5 61.5t61.5 24.5t61.5 -24.5t24.5 -61.5t-24.5 -61.5t-61.5 -24.5t-61.5 24.5t-24.5 61.5z" />
<glyph unicode="&#xdd;" horiz-adv-x="1388" d="M98 1290v144h217l377 -732l377 732h215v-144h-133l-381 -727v-563h-154v559l-385 733v-2h-133zM618 1541l105 260h151l-104 -260h-152z" />
<glyph unicode="&#xde;" horiz-adv-x="991" d="M66 0v143h133v1147h-133v144h276v-410h78q221 0 348 -102q123 -104 123 -285q0 -92 -32 -161.5t-91 -123.5q-127 -100 -348 -100h-78v-252h-276zM342 391h82q143 0 231 66q82 66 82 180q0 113 -82 182q-88 66 -231 66h-82v-494z" />
<glyph unicode="&#xdf;" horiz-adv-x="1148" d="M86 0v143h133v1147h-133v144h416q221 0 348 -103q123 -104 123 -284q0 -92 -32 -162t-91 -123q-4 -4 -8 -6q57 -23 102 -58q63 -59 96 -129.5t33 -169.5q0 -182 -129 -295q-133 -104 -358 -104h-64v145h66q160 0 239 68q88 74 88 188q0 123 -88 193q-80 68 -239 68h-66 v139h45q94 0 170 65q82 66 82 181q0 113 -82 182q-88 66 -231 65h-144v-1294h-276z" />
<glyph unicode="&#xe0;" horiz-adv-x="1425" d="M88 514q0 117 44 219.5t121 179t179.5 120.5t218.5 44q117 0 219.5 -44t179 -120.5t120.5 -179t44 -219.5v-381h144v-133h-287v137q-98 -98 -200.5 -142t-219.5 -44t-219 44t-179 121t-121 179t-44 219zM231 514q0 -86 33 -163t90.5 -134t134 -90t162.5 -33t163 33 t134.5 90t89.5 133q29 70 33 146v18q0 86 -32.5 163t-90 134t-134.5 90t-163 33t-162.5 -33t-134 -90t-90.5 -134t-33 -163zM477 1454h152l104 -260h-151z" />
<glyph unicode="&#xe1;" horiz-adv-x="1425" d="M88 514q0 117 44 219.5t121 179t179.5 120.5t218.5 44q117 0 219.5 -44t179 -120.5t120.5 -179t44 -219.5v-381h144v-133h-287v137q-98 -98 -200.5 -142t-219.5 -44t-219 44t-179 121t-121 179t-44 219zM231 514q0 -86 33 -163t90.5 -134t134 -90t162.5 -33t163 33 t134.5 90t89.5 133q29 70 33 146v18q0 86 -32.5 163t-90 134t-134.5 90t-163 33t-162.5 -33t-134 -90t-90.5 -134t-33 -163zM563 1194l105 260h151l-104 -260h-152z" />
<glyph unicode="&#xe2;" horiz-adv-x="1425" d="M88 514q0 117 44 219.5t121 179t179.5 120.5t218.5 44q117 0 219.5 -44t179 -120.5t120.5 -179t44 -219.5v-381h144v-133h-287v137q-98 -98 -200.5 -142t-219.5 -44t-219 44t-179 121t-121 179t-44 219zM231 514q0 -86 33 -163t90.5 -134t134 -90t162.5 -33t163 33 t134.5 90t89.5 133q29 70 33 146v18q0 86 -32.5 163t-90 134t-134.5 90t-163 33t-162.5 -33t-134 -90t-90.5 -134t-33 -163zM359 1194l186 267h182l189 -267h-156l-123 172l-125 -172h-153z" />
<glyph unicode="&#xe3;" horiz-adv-x="1425" d="M88 514q0 117 44 219.5t121 179t179.5 120.5t218.5 44q117 0 219.5 -44t179 -120.5t120.5 -179t44 -219.5v-381h144v-133h-287v137q-98 -98 -200.5 -142t-219.5 -44t-219 44t-179 121t-121 179t-44 219zM231 514q0 -86 33 -163t90.5 -134t134 -90t162.5 -33t163 33 t134.5 90t89.5 133q29 70 33 146v18q0 86 -32.5 163t-90 134t-134.5 90t-163 33t-162.5 -33t-134 -90t-90.5 -134t-33 -163zM372 1272q49 84 135.5 107.5t170.5 -23.5q31 -18 57.5 -9t44.5 40l127 -76q-49 -84 -135 -107.5t-170 25.5q-31 20 -57.5 10t-45.5 -43z" />
<glyph unicode="&#xe4;" horiz-adv-x="1425" d="M88 514q0 117 44 219.5t121 179t179.5 120.5t218.5 44q117 0 219.5 -44t179 -120.5t120.5 -179t44 -219.5v-381h144v-133h-287v137q-98 -98 -200.5 -142t-219.5 -44t-219 44t-179 121t-121 179t-44 219zM231 514q0 -86 33 -163t90.5 -134t134 -90t162.5 -33t163 33 t134.5 90t89.5 133q29 70 33 146v18q0 86 -32.5 163t-90 134t-134.5 90t-163 33t-162.5 -33t-134 -90t-90.5 -134t-33 -163zM400 1282q0 37 24.5 61.5t61.5 24.5t61.5 -24.5t24.5 -61.5t-25 -61.5t-61 -24.5q-37 0 -61.5 24.5t-24.5 61.5zM727 1282q0 37 24.5 61.5 t61.5 24.5t61.5 -24.5t24.5 -61.5t-24.5 -61.5t-61.5 -24.5t-61.5 24.5t-24.5 61.5z" />
<glyph unicode="&#xe5;" horiz-adv-x="1425" d="M88 514q0 117 44 219.5t121 179t179.5 120.5t218.5 44q117 0 219.5 -44t179 -120.5t120.5 -179t44 -219.5v-381h144v-133h-287v137q-98 -98 -200.5 -142t-219.5 -44t-219 44t-179 121t-121 179t-44 219zM231 514q0 -86 33 -163t90.5 -134t134 -90t162.5 -33t163 33 t134.5 90t89.5 133q29 70 33 146v18q0 86 -32.5 163t-90 134t-134.5 90t-163 33t-162.5 -33t-134 -90t-90.5 -134t-33 -163zM459 1389q0 41 14.5 76t41 61.5t61.5 41t76 14.5t75.5 -14.5t61 -41t41 -61.5t14.5 -76t-14.5 -76t-41 -61.5t-61 -41t-75.5 -14.5t-76 14.5 t-61.5 41t-41 61.5t-14.5 76zM537 1389q0 -25 8 -46.5t24.5 -37.5t39 -25.5t45.5 -9.5q25 0 46 9.5t37.5 25.5t25.5 37.5t9 46.5q0 23 -9 45.5t-25.5 38.5t-38 24.5t-45.5 8.5q-23 0 -45.5 -8.5t-39 -24.5t-24.5 -38.5t-8 -45.5z" />
<glyph unicode="&#xe6;" horiz-adv-x="2293" d="M100 514q0 117 44 219.5t121 179t179.5 120.5t219.5 44t219 -44t178 -122q55 -55 94 -123q39 70 92 123q78 78 180.5 122t219.5 44t219 -44t179 -120.5t120 -179.5q37 -84 43 -176h-979q-2 -23 -2 -43v-22q4 -74 33 -142q33 -76 90 -133t134 -90t163 -33t162.5 33 t134.5 90q41 41 69 94h158l-6 -16q-43 -102 -120 -179t-179.5 -121t-218.5 -44q-117 0 -219.5 44t-180.5 120q-10 12 -20 22v-137h-144v137l-22 -22q-76 -76 -178.5 -120t-218.5 -44q-117 0 -219.5 44t-179.5 121t-121 179t-44 219zM244 514q0 -86 32.5 -163t90 -134 t134.5 -90t163 -33t162.5 33t134 90t90.5 133q27 68 32 142v22v16q-4 76 -32 146q-33 78 -90.5 135t-134 90t-162.5 33t-163 -33t-134.5 -90t-90 -134t-32.5 -163zM1270 700h751q-30 62 -77 111q-57 57 -134 90t-163 33t-163 -33t-134 -90q-49 -49 -80 -111z" />
<glyph unicode="&#xe7;" horiz-adv-x="1290" d="M84 514q0 117 44 219.5t121 179t179 120.5t219 44t219 -45q90 -39 162 -102v78h143v-289h-159q-27 51 -68 92q-57 57 -134 90t-163 33t-162.5 -33t-134 -90t-90.5 -134t-33 -163t33 -163t90.5 -134t134 -90t162.5 -33t163 33t134 90q41 41 70 94h157l-6 -16 q-43 -102 -119.5 -179t-179 -121t-219.5 -44t-219 44t-179 121t-121 179t-44 219zM582 0h143v-113q43 0 83 -17t68.5 -46t46 -68t17.5 -84t-17.5 -84t-46 -67.5t-68.5 -45t-83 -16.5h-143v144h143q29 0 49.5 20.5t20.5 48.5q0 29 -20.5 50.5t-49.5 21.5h-143v256z" />
<glyph unicode="&#xe8;" horiz-adv-x="1275" d="M84 514q0 117 44 219.5t121 179t179 120.5t219 44t219.5 -44t179 -120.5t119.5 -179.5q37 -84 43 -176h-979q-2 -23 -2 -43q0 -86 33 -163t90.5 -134t134 -90t162.5 -33t163 33t134 90q41 41 70 94h157l-6 -16q-43 -102 -119.5 -179t-179 -121t-219.5 -44t-219 44 t-179 121t-121 179t-44 219zM270 680h752q-31 82 -78 131q-57 57 -134 90t-163 33t-162.5 -33t-134.5 -90q-49 -49 -80 -131zM469 1454h152l104 -260h-151z" />
<glyph unicode="&#xe9;" horiz-adv-x="1275" d="M84 514q0 117 44 219.5t121 179t179 120.5t219 44t219.5 -44t179 -120.5t119.5 -179.5q37 -84 43 -176h-979q-2 -23 -2 -43q0 -86 33 -163t90.5 -134t134 -90t162.5 -33t163 33t134 90q41 41 70 94h157l-6 -16q-43 -102 -119.5 -179t-179 -121t-219.5 -44t-219 44 t-179 121t-121 179t-44 219zM270 680h752q-31 82 -78 131q-57 57 -134 90t-163 33t-162.5 -33t-134.5 -90q-49 -49 -80 -131zM571 1194l105 260h151l-104 -260h-152z" />
<glyph unicode="&#xea;" horiz-adv-x="1275" d="M84 514q0 117 44 219.5t121 179t179 120.5t219 44t219.5 -44t179 -120.5t119.5 -179.5q37 -84 43 -176h-979q-2 -23 -2 -43q0 -86 33 -163t90.5 -134t134 -90t162.5 -33t163 33t134 90q41 41 70 94h157l-6 -16q-43 -102 -119.5 -179t-179 -121t-219.5 -44t-219 44 t-179 121t-121 179t-44 219zM270 680h752q-31 82 -78 131q-57 57 -134 90t-163 33t-162.5 -33t-134.5 -90q-49 -49 -80 -131zM359 1194l186 267h182l189 -267h-156l-123 172l-125 -172h-153z" />
<glyph unicode="&#xeb;" horiz-adv-x="1275" d="M84 514q0 117 44 219.5t121 179t179 120.5t219 44t219.5 -44t179 -120.5t119.5 -179.5q37 -84 43 -176h-979q-2 -23 -2 -43q0 -86 33 -163t90.5 -134t134 -90t162.5 -33t163 33t134 90q41 41 70 94h157l-6 -16q-43 -102 -119.5 -179t-179 -121t-219.5 -44t-219 44 t-179 121t-121 179t-44 219zM270 680h752q-31 82 -78 131q-57 57 -134 90t-163 33t-162.5 -33t-134.5 -90q-49 -49 -80 -131zM387 1282q0 37 24.5 61.5t61.5 24.5t61.5 -24.5t24.5 -61.5t-25 -61.5t-61 -24.5q-37 0 -61.5 24.5t-24.5 61.5zM714 1282q0 37 24.5 61.5 t61.5 24.5t61.5 -24.5t24.5 -61.5t-24.5 -61.5t-61.5 -24.5t-61.5 24.5t-24.5 61.5z" />
<glyph unicode="&#xec;" horiz-adv-x="466" d="M84 891v133h287v-1024h-143v891h-144zM110 1397h152l104 -260h-151z" />
<glyph unicode="&#xed;" horiz-adv-x="483" d="M92 891v133h287v-1024h-143v891h-144zM221 1137l105 260h151l-104 -260h-152z" />
<glyph unicode="&#xee;" horiz-adv-x="487" d="M15 1136l186 267h182l189 -267h-156l-123 172l-125 -172h-153zM98 891v133h287v-1024h-143v891h-144z" />
<glyph unicode="&#xef;" horiz-adv-x="479" d="M37 1223q0 37 24.5 61.5t61.5 24.5t61.5 -24.5t24.5 -61.5t-25 -61.5t-61 -24.5q-37 0 -61.5 24.5t-24.5 61.5zM92 891v133h287v-1024h-143v891h-144zM364 1223q0 37 24.5 61.5t61.5 24.5t61.5 -24.5t24.5 -61.5t-24.5 -61.5t-61.5 -24.5t-61.5 24.5t-24.5 61.5z" />
<glyph unicode="&#xf0;" horiz-adv-x="1294" d="M74 514q0 117 44 219.5t120.5 179t179 120.5t219.5 44t219 -44t178 -120l23 -22v29q0 86 -33 162.5t-90 134.5q-41 39 -90 67l-148 -149l-102 102l96 96q-27 4 -53 4q-86 0 -162 -32q-74 -29 -129 -82l-98 100q74 74 170 115q102 45 219 45q92 0 174 -29l129 129 l100 -102l-92 -92q47 -31 86 -72q78 -76 121 -178q43 -100 45 -600q0 -141 -44 -243.5t-121 -179.5t-179 -121t-219 -44t-219.5 44t-179 121t-120.5 179t-44 219zM217 514q0 -86 33 -163t90 -134t134 -90t163 -33t163 33t134 90t90 134t33 163t-33 163t-90 134t-134 90 t-163 33t-163 -33t-134 -90t-90 -134t-33 -163z" />
<glyph unicode="&#xf1;" horiz-adv-x="1243" d="M92 891v133h287v-94q20 33 55 60.5t77 47t89 29.5t94 10q94 0 178 -36.5t146.5 -99t99.5 -147.5t37 -180l2 -614h-148l-2 614q0 66 -24.5 123.5t-67.5 100.5t-100.5 67.5t-120.5 24.5t-120.5 -26.5t-100.5 -71t-68.5 -101.5t-25.5 -117l2 -614h-146v891h-143zM397 1272 q49 84 135.5 107.5t170.5 -23.5q31 -18 57.5 -9t44.5 40l127 -76q-49 -84 -135 -107.5t-170 25.5q-31 20 -57.5 10t-45.5 -43z" />
<glyph unicode="&#xf2;" horiz-adv-x="1267" d="M70 514q0 117 44 219.5t121 179t179 120.5t219 44t219.5 -44t179 -120.5t120.5 -179t44 -219.5t-44 -219t-120.5 -179t-179 -121t-219.5 -44t-219 44t-179 121t-121 179t-44 219zM213 514q0 -86 33 -163t90.5 -134t134 -90t162.5 -33t163 33t134 90t90 134t33 163 t-33 163t-90 134t-134 90t-163 33t-162.5 -33t-134 -90t-90.5 -134t-33 -163zM455 1454h152l104 -260h-151z" />
<glyph unicode="&#xf3;" horiz-adv-x="1300" d="M84 514q0 117 44 219.5t121 179t179 120.5t219 44t219.5 -44t179 -120.5t120.5 -179t44 -219.5t-44 -219t-120.5 -179t-179 -121t-219.5 -44t-219 44t-179 121t-121 179t-44 219zM227 514q0 -86 33 -163t90.5 -134t134 -90t162.5 -33t163 33t134 90t90 134t33 163 t-33 163t-90 134t-134 90t-163 33t-162.5 -33t-134 -90t-90.5 -134t-33 -163zM587 1194l105 260h151l-104 -260h-152z" />
<glyph unicode="&#xf4;" horiz-adv-x="1300" d="M84 514q0 117 44 219.5t121 179t179 120.5t219 44t219.5 -44t179 -120.5t120.5 -179t44 -219.5t-44 -219t-120.5 -179t-179 -121t-219.5 -44t-219 44t-179 121t-121 179t-44 219zM227 514q0 -86 33 -163t90.5 -134t134 -90t162.5 -33t163 33t134 90t90 134t33 163 t-33 163t-90 134t-134 90t-163 33t-162.5 -33t-134 -90t-90.5 -134t-33 -163zM371 1194l186 267h182l189 -267h-156l-123 172l-125 -172h-153z" />
<glyph unicode="&#xf5;" horiz-adv-x="1316" d="M84 514q0 117 44 219.5t121 179t179 120.5t219 44t219.5 -44t179 -120.5t120.5 -179t44 -219.5t-44 -219t-120.5 -179t-179 -121t-219.5 -44t-219 44t-179 121t-121 179t-44 219zM227 514q0 -86 33 -163t90.5 -134t134 -90t162.5 -33t163 33t134 90t90 134t33 163 t-33 163t-90 134t-134 90t-163 33t-162.5 -33t-134 -90t-90.5 -134t-33 -163zM381 1272q49 84 135.5 107.5t170.5 -23.5q31 -18 57.5 -9t44.5 40l127 -76q-49 -84 -135 -107.5t-170 25.5q-31 20 -57.5 10t-45.5 -43z" />
<glyph unicode="&#xf6;" horiz-adv-x="1294" d="M84 514q0 117 44 219.5t121 179t179 120.5t219 44t219.5 -44t179 -120.5t120.5 -179t44 -219.5t-44 -219t-120.5 -179t-179 -121t-219.5 -44t-219 44t-179 121t-121 179t-44 219zM227 514q0 -86 33 -163t90.5 -134t134 -90t162.5 -33t163 33t134 90t90 134t33 163 t-33 163t-90 134t-134 90t-163 33t-162.5 -33t-134 -90t-90.5 -134t-33 -163zM398 1282q0 37 24.5 61.5t61.5 24.5t61.5 -24.5t24.5 -61.5t-25 -61.5t-61 -24.5q-37 0 -61.5 24.5t-24.5 61.5zM725 1282q0 37 24.5 61.5t61.5 24.5t61.5 -24.5t24.5 -61.5t-24.5 -61.5 t-61.5 -24.5t-61.5 24.5t-24.5 61.5z" />
<glyph unicode="&#xf7;" horiz-adv-x="819" d="M64 496v143h698v-143h-698zM325 86q0 37 24.5 61.5t61.5 24.5t61.5 -24.5t24.5 -61.5t-24.5 -61.5t-61.5 -24.5t-61.5 24.5t-24.5 61.5zM325 938q0 37 24.5 61.5t61.5 24.5t61.5 -24.5t24.5 -61.5t-24.5 -61.5t-61.5 -24.5t-61.5 24.5t-24.5 61.5z" />
<glyph unicode="&#xf8;" horiz-adv-x="1277" d="M72 514q0 117 44 219.5t121 179t179 120.5t219 44t219.5 -44t179 -120.5t120.5 -179t44 -219.5t-44 -219t-120.5 -179t-179 -121t-219.5 -44t-219 44t-179 121t-121 179t-44 219zM215 514q0 -86 33 -163t90.5 -134t134 -90t162.5 -33t163 33t134 90t90 134t33 163 t-33 163t-90 134t-134 90t-163 33t-162.5 -33t-134 -90t-90.5 -134t-33 -163zM336 -215l467 1434h152l-467 -1434h-152z" />
<glyph unicode="&#xf9;" horiz-adv-x="1372" d="M75 891v133h289l2 -612v-2q0 -66 24.5 -123.5t67.5 -99.5t99.5 -66.5t121.5 -24.5q66 0 123.5 24.5t100.5 66.5t67.5 99.5t24.5 123.5v614h287v-133h-144v-481q0 -94 -35.5 -178.5t-98 -146.5t-146.5 -99t-179 -37q-94 0 -178 37t-146.5 99t-99 146t-36.5 179v2l-2 479 h-142zM510 1397h152l104 -260h-151z" />
<glyph unicode="&#xfa;" horiz-adv-x="1384" d="M75 891v133h289l2 -612v-2q0 -66 24.5 -123.5t67.5 -99.5t99.5 -66.5t121.5 -24.5q66 0 123.5 24.5t100.5 66.5t67.5 99.5t24.5 123.5v614h287v-133h-144v-481q0 -94 -35.5 -178.5t-98 -146.5t-146.5 -99t-179 -37q-94 0 -178 37t-146.5 99t-99 146t-36.5 179v2l-2 479 h-142zM606 1137l105 260h151l-104 -260h-152z" />
<glyph unicode="&#xfb;" horiz-adv-x="1370" d="M75 891v133h289l2 -612v-2q0 -66 24.5 -123.5t67.5 -99.5t99.5 -66.5t121.5 -24.5q66 0 123.5 24.5t100.5 66.5t67.5 99.5t24.5 123.5v614h287v-133h-144v-481q0 -94 -35.5 -178.5t-98 -146.5t-146.5 -99t-179 -37q-94 0 -178 37t-146.5 99t-99 146t-36.5 179v2l-2 479 h-142zM394 1136l186 267h182l189 -267h-156l-123 172l-125 -172h-153z" />
<glyph unicode="&#xfc;" horiz-adv-x="1351" d="M75 891v133h289l2 -612v-2q0 -66 24.5 -123.5t67.5 -99.5t99.5 -66.5t121.5 -24.5q66 0 123.5 24.5t100.5 66.5t67.5 99.5t24.5 123.5v614h287v-133h-144v-481q0 -94 -35.5 -178.5t-98 -146.5t-146.5 -99t-179 -37q-94 0 -178 37t-146.5 99t-99 146t-36.5 179v2l-2 479 h-142zM426 1223q0 37 24.5 61.5t61.5 24.5t61.5 -24.5t24.5 -61.5t-25 -61.5t-61 -24.5q-37 0 -61.5 24.5t-24.5 61.5zM753 1223q0 37 24.5 61.5t61.5 24.5t61.5 -24.5t24.5 -61.5t-24.5 -61.5t-61.5 -24.5t-61.5 24.5t-24.5 61.5z" />
<glyph unicode="&#xfd;" horiz-adv-x="1316" d="M52 891v133h288l2 -614v-2q0 -66 25 -123.5t68 -99.5t99 -66.5t122 -24.5t123 24.5t100 66.5t67.5 99.5t24.5 123.5v616h287v-133h-143v-483q0 -94 -36 -178.5t-98.5 -147t-146.5 -98.5q-51 -23 -107 -33l3 -463h-146l-2 463q-55 10 -104 33q-84 37 -146.5 99t-99.5 146 t-37 179v2l-2 481h-141zM589 1137l105 260h151l-104 -260h-152z" />
<glyph unicode="&#xfe;" horiz-adv-x="1421" d="M68 -297h133v1587h-133v144h276v-545q10 12 21 22q78 78 180 122t219 44t219 -44t179 -120.5t121 -179t44 -219.5t-44 -219t-121 -179t-179 -121t-219 -44t-219.5 44t-179.5 120q-10 12 -21 22v-577h-276v143zM344 514q0 -86 33 -163t90 -134t134 -90t163 -33t163 33 t134 90t90 134t33 163t-33 163t-90 134t-134 90t-163 33t-163 -33t-134 -90t-90 -135q-29 -66 -33 -135v-27z" />
<glyph unicode="&#xff;" horiz-adv-x="1400" d="M99 891v133h288l2 -614v-2q0 -66 25 -123.5t68 -99.5t99 -66.5t122 -24.5t123 24.5t100 66.5t67.5 99.5t24.5 123.5v616h287v-133h-143v-483q0 -94 -36 -178.5t-98.5 -147t-146.5 -98.5q-51 -23 -107 -33l3 -463h-146l-2 463q-55 10 -104 33q-84 37 -146.5 99t-99.5 146 t-37 179v2l-2 481h-141zM451 1223q0 37 24.5 61.5t61.5 24.5t61.5 -24.5t24.5 -61.5t-25 -61.5t-61 -24.5q-37 0 -61.5 24.5t-24.5 61.5zM778 1223q0 37 24.5 61.5t61.5 24.5t61.5 -24.5t24.5 -61.5t-24.5 -61.5t-61.5 -24.5t-61.5 24.5t-24.5 61.5z" />
<glyph unicode="&#x152;" horiz-adv-x="1863" d="M90 717q0 147 56.5 278t153.5 228.5t228 154t279 56.5h954v-277h-143v133h-668v-590h668v-143h-668v-414h668v133h143v-276h-954q-147 0 -278.5 56.5t-228.5 153.5t-153.5 228t-56.5 279zM236 715q0 -119 45 -223.5t121.5 -181.5t181 -122t223.5 -45v1145 q-119 0 -223.5 -45t-181 -123t-121.5 -182t-45 -223z" />
<glyph unicode="&#x153;" horiz-adv-x="2267" d="M84 514q0 117 44 219.5t121 179t179 120.5t219 44t219.5 -44t177.5 -122q55 -55 95 -123q39 70 92 123q78 78 180 122t219 44t219.5 -44t179 -120.5t119.5 -179.5q37 -84 43 -176h-979q-2 -23 -2 -43v-22q4 -74 33 -142q33 -76 90.5 -133t134 -90t162.5 -33t163 33 t134 90q41 41 70 94h157l-6 -16q-43 -102 -119.5 -179t-179 -121t-219.5 -44t-219 44t-180 120q-53 55 -92 123q-39 -68 -95 -123q-76 -76 -178 -120t-219 -44t-219 44t-179 121t-121 179t-44 219zM227 514q0 -86 33 -163t90.5 -134t134 -90t162.5 -33t163 33t134 90t90 134 t33 163t-33 163t-90 134t-134 90t-163 33t-162.5 -33t-134 -90t-90.5 -134t-33 -163zM1253 700h752q-31 62 -78 111q-57 57 -134 90t-163 33t-162.5 -33t-134.5 -90q-49 -49 -80 -111z" />
<glyph unicode="&#x178;" horiz-adv-x="1390" d="M100 1290v144h217l377 -732l377 732h215v-144h-133l-381 -727v-563h-154v559l-385 733v-2h-133zM449 1626q0 37 24.5 61.5t61.5 24.5t61.5 -24.5t24.5 -61.5t-25 -61.5t-61 -24.5q-37 0 -61.5 24.5t-24.5 61.5zM776 1626q0 37 24.5 61.5t61.5 24.5t61.5 -24.5t24.5 -61.5 t-24.5 -61.5t-61.5 -24.5t-61.5 24.5t-24.5 61.5z" />
<glyph unicode="&#x2c6;" horiz-adv-x="690" d="M68 1169l186 267h182l189 -267h-156l-123 172l-125 -172h-153z" />
<glyph unicode="&#x2dc;" horiz-adv-x="655" d="M59 1708q49 84 135.5 107.5t170.5 -23.5q31 -18 57.5 -9t44.5 40l127 -76q-49 -84 -135 -107.5t-170 25.5q-31 20 -57.5 10t-45.5 -43z" />
<glyph unicode="&#x2000;" horiz-adv-x="964" />
<glyph unicode="&#x2001;" horiz-adv-x="1928" />
<glyph unicode="&#x2002;" horiz-adv-x="964" />
<glyph unicode="&#x2003;" horiz-adv-x="1928" />
<glyph unicode="&#x2004;" horiz-adv-x="642" />
<glyph unicode="&#x2005;" horiz-adv-x="482" />
<glyph unicode="&#x2006;" horiz-adv-x="321" />
<glyph unicode="&#x2007;" horiz-adv-x="321" />
<glyph unicode="&#x2008;" horiz-adv-x="241" />
<glyph unicode="&#x2009;" horiz-adv-x="385" />
<glyph unicode="&#x200a;" horiz-adv-x="107" />
<glyph unicode="&#x2010;" horiz-adv-x="942" d="M123 557v143h698v-143h-698z" />
<glyph unicode="&#x2011;" horiz-adv-x="942" d="M123 557v143h698v-143h-698z" />
<glyph unicode="&#x2012;" horiz-adv-x="942" d="M123 557v143h698v-143h-698z" />
<glyph unicode="&#x2013;" horiz-adv-x="1091" d="M123 471v143h848v-143h-848z" />
<glyph unicode="&#x2014;" horiz-adv-x="1257" d="M123 471v143h1012v-143h-1012z" />
<glyph unicode="&#x2018;" horiz-adv-x="313" d="M90 1239v80q0 27 11.5 53.5t39.5 44.5q51 27 65.5 10.5t-7.5 -36.5q-49 -27 -35 -66q57 0 77.5 -24.5t20.5 -61.5t-24.5 -61.5t-61.5 -24.5t-61.5 24.5t-24.5 61.5z" />
<glyph unicode="&#x2019;" horiz-adv-x="307" d="M53 1348q0 37 24.5 61.5t61.5 24.5t61.5 -25t24.5 -61v-80q0 -27 -11 -53.5t-40 -45.5q-51 -27 -65.5 -10t8.5 37q49 27 35 66q-57 0 -78 24.5t-21 61.5z" />
<glyph unicode="&#x201a;" horiz-adv-x="325" d="M63 86q0 37 25 61.5t62 24.5t61.5 -24.5t24.5 -61.5v-39q0 -41 -28 -68.5t-69 -27.5h-13t-11 4q35 6 35 45q-37 0 -62 24.5t-25 61.5z" />
<glyph unicode="&#x201c;" horiz-adv-x="630" d="M109 1239v80q0 27 11 53.5t40 44.5q51 27 65.5 10.5t-8.5 -36.5q-49 -27 -35 -66q57 0 78 -24.5t21 -61.5t-25 -61.5t-61 -24.5q-37 0 -61.5 24.5t-24.5 61.5zM375 1239v80q0 27 11 53.5t40 44.5q51 27 65.5 10.5t-8.5 -36.5q-49 -27 -34 -66q57 0 77.5 -24.5t20.5 -61.5 t-24.5 -61.5t-61.5 -24.5t-61.5 24.5t-24.5 61.5z" />
<glyph unicode="&#x201d;" horiz-adv-x="628" d="M86 1348q0 37 24.5 61.5t61.5 24.5t61.5 -25t24.5 -61v-80q0 -27 -11 -53.5t-40 -45.5q-51 -27 -65.5 -10t8.5 37q49 27 34 66q-57 0 -77.5 24.5t-20.5 61.5zM352 1348q0 37 24.5 61.5t61.5 24.5t61.5 -25t24.5 -61v-80q0 -27 -11 -53.5t-40 -45.5q-51 -27 -65.5 -10 t8.5 37q49 27 35 66q-57 0 -78 24.5t-21 61.5z" />
<glyph unicode="&#x201e;" horiz-adv-x="622" d="M82 86q0 37 24.5 61.5t61.5 24.5t61.5 -24.5t24.5 -61.5v-80q0 -27 -11.5 -53.5t-39.5 -44.5q-51 -27 -65.5 -10.5t7.5 36.5q49 27 35 66q-57 0 -77.5 24.5t-20.5 61.5zM348 86q0 37 24.5 61.5t61.5 24.5t61.5 -24.5t24.5 -61.5v-80q0 -27 -11 -53.5t-40 -44.5 q-51 -27 -65.5 -10.5t8.5 36.5q49 27 34 66q-57 0 -77.5 24.5t-20.5 61.5z" />
<glyph unicode="&#x2022;" horiz-adv-x="522" d="M88 612q0 76 50 126t124 50q76 0 126 -50t50 -126q0 -74 -50 -124t-126 -50q-74 0 -124 50t-50 124z" />
<glyph unicode="&#x2026;" horiz-adv-x="915" d="M113 86q0 37 24.5 61.5t61.5 24.5t61.5 -24.5t24.5 -61.5t-24.5 -61.5t-61.5 -24.5t-61.5 24.5t-24.5 61.5zM367 86q0 37 24.5 61.5t61.5 24.5t61.5 -24.5t24.5 -61.5t-25 -61.5t-61 -24.5q-37 0 -61.5 24.5t-24.5 61.5zM621 86q0 37 24.5 61.5t61.5 24.5t61.5 -24.5 t24.5 -61.5t-25 -61.5t-61 -24.5q-37 0 -61.5 24.5t-24.5 61.5z" />
<glyph unicode="&#x202f;" horiz-adv-x="385" />
<glyph unicode="&#x2039;" horiz-adv-x="716" d="M8 510l510 510l100 -102l-407 -408l407 -408l-100 -102z" />
<glyph unicode="&#x203a;" horiz-adv-x="802" d="M96 102l408 408l-408 408l101 102l510 -510l-510 -510z" />
<glyph unicode="&#x205f;" horiz-adv-x="482" />
<glyph unicode="&#x20ac;" horiz-adv-x="1712" d="M57 496v143h176q-4 39 -4 80q0 33 2 63h-174v144h201q12 41 29 80q59 135 160.5 236t235.5 159.5t288 58.5q190 0 348 -88q70 -39 129 -88v72h133v-217h-199q-80 78 -185 123t-226 45t-228.5 -46.5t-187.5 -126t-137 -208.5h551v-144h-586q-2 -33 -2 -63q0 -41 4 -80h584 v-143h-543q49 -113 129 -193t187.5 -127t228.5 -47q80 0 154.5 20.5t139 59.5t118 91t92.5 118h172q-43 -98 -112 -179t-157 -139.5t-191.5 -90.5t-215.5 -32q-154 0 -288 58.5t-235.5 160t-160.5 234.5q-14 33 -25 66h-205z" />
<glyph unicode="&#x2122;" horiz-adv-x="1814" d="M57 1290v144h627v-144h-242v-614h-143v614h-242zM786 676v758h144l313 -584l318 584h143v-758h-143v495l-318 -604l-313 602v-493h-144z" />
<glyph unicode="&#x25fc;" horiz-adv-x="1024" d="M0 0v1024h1024v-1024h-1024z" />
<glyph unicode="&#xfb01;" horiz-adv-x="831" d="M66 762v143h104v254q0 57 21.5 107.5t58.5 87.5t87 58.5t107 21.5t107.5 -21.5t88.5 -58.5t59.5 -87t21.5 -108h-143q0 53 -39 91t-93 38q-53 0 -91 -38t-38 -91v-254h404v-905h-143v762h-261v-762h-147v762h-104z" />
<glyph unicode="&#xfb02;" horiz-adv-x="837" d="M66 557v143h104v459q0 57 21.5 107.5t58.5 87.5t87 58.5t107 21.5t107.5 -21.5t88.5 -58.5t59.5 -87t21.5 -108v-1159h-143v1159q0 53 -39 91t-93 38q-53 0 -91 -38t-38 -91v-459h162v-143h-162v-557h-147v557h-104z" />
</font>
</defs>
</svg>
